<svg width="2560.000000" height="1024.000000" viewBox="0 0 2560 1024" fill="none" xmlns="http://www.w3.org/2000/svg" xmlns:xlink="http://www.w3.org/1999/xlink">
	<desc>
			Created with Pixso.
	</desc>
	<defs>
		<clipPath id="clip43_3">
			<rect id="Header Light" width="2560.000000" height="1024.000000" fill="white" fill-opacity="0"/>
		</clipPath>
	</defs>
	<rect id="Header Light" width="2560.000000" height="1024.000000" fill="#FFFFFF" fill-opacity="0"/>
	<g clip-path="url(#clip43_3)">
		<path id="中V档案馆" d="M1582.53 281.81C1581.2 270.95 1571.98 258.76 1562.68 252.35L1565.26 249.85C1627.92 252.35 1606.51 298.45 1582.53 281.81ZM1979.32 294.31C1977.76 279.93 1966.2 262.59 1956.28 252.98L1959.17 250.48C2025.1 264.85 2002.68 312.2 1979.32 294.31ZM2071.2 312.82C2065.1 320.87 2053.62 334.62 2046.2 341.96L2042.06 340.09C2042.37 332.35 2043.7 318.6 2044.32 308.06L1923.7 308.06C1925.26 319.54 1923.39 329.46 1920.18 336.18L1945.1 347.12L2018.39 347.12L2030.57 334.62L2056.43 354.15C2054.87 356.34 2050.42 358.6 2045.26 359.54L2045.26 419.39C2044.95 421.34 2032.76 426.1 2025.1 426.1L2021.28 426.1L2021.28 413.68L1943.54 413.68L1943.54 449.15L2027.68 449.15L2040.18 435.71L2067.06 456.18C2065.1 458.45 2060.34 461.34 2054.87 462.28L2054.87 534.93C2054.56 536.57 2042.68 541.96 2034.71 541.96L2030.89 541.96L2030.89 524.07L1943.54 524.07L1943.54 537.51C1943.54 540.71 1933.62 546.42 1923 546.42L1918.85 546.42L1918.85 338.14C1917.92 339.7 1916.98 341.03 1915.65 341.96C1909.56 347.43 1898.39 347.75 1894.25 339.7C1891.04 332.35 1895.5 325.01 1902.53 320.87C1903.54 319.93 1904.48 318.6 1905.1 317.35C1903.15 317.98 1900.34 318.29 1896.43 318.6C1889.09 331.73 1877.29 353.84 1866.04 365.95L1860.96 365.95C1865.42 352.82 1869.87 331.1 1871.82 315.71L1825.42 315.71C1814.87 343.92 1802.37 372.67 1787.68 393.53L1782.84 391.26C1796.98 356.03 1809.4 295.25 1814.56 251.42L1853.23 260.09C1851.98 263.6 1849.71 265.48 1841.43 264.85C1837.92 277.67 1833.78 291.73 1828.62 306.42L1869.87 306.42L1883.39 292.35L1907.06 314.15C1911.2 306.1 1913.78 294.62 1912.14 285.01L1917.6 285.01C1919.48 289.46 1920.81 294 1922.06 298.45L2041.75 298.45L2056.43 283.76L2083.31 309.31C2080.81 311.89 2077.6 312.51 2071.2 312.82ZM725.66 320.25L739.72 305.48L769.17 327.9C767.22 330.48 762.14 333.37 755.73 334.62L755.73 442.75C755.42 445.01 742.3 450.48 733.31 450.48L728.86 450.48L728.86 423.92L641.83 423.92L641.83 537.2C641.83 540.71 630.27 547.43 620.34 547.43L615.27 547.43L615.27 423.92L528.23 423.92L528.23 445.64C528.23 448.21 516.98 454.62 506.13 454.62L501.98 454.62L501.98 307.75L530.73 320.25L615.27 320.25L615.27 252.04L653.63 256.18C652.69 260.71 650.11 264.23 641.83 265.48L641.83 320.25L725.66 320.25ZM1211.9 337.51L1170.34 337.51L1170.34 377.51C1235.89 405.32 1215.1 447.28 1193.69 430.32C1190.5 415.87 1179.87 397.67 1170.34 384.23L1170.34 539.39C1170.34 542.28 1160.1 548.06 1150.81 548.06L1145.34 548.06L1145.34 401.5C1132.53 428.37 1115.89 452.67 1095.1 473.53L1090.65 469.62C1115.89 433.21 1131.9 384.85 1141.19 337.51L1098 337.51L1095.42 328.21L1145.34 328.21L1145.34 252.67L1182.14 256.57C1181.19 261.34 1178.93 264.54 1170.34 265.79L1170.34 328.21L1180.26 328.21L1194.31 308.06C1194.31 308.06 1210.65 322.12 1220.26 332.35C1219.25 335.87 1216.35 337.51 1211.9 337.51ZM1347.6 377.2L1360.73 362.12L1389.17 384.23C1386.98 386.81 1382.45 389.62 1376.04 390.95L1376.04 535.87C1375.42 537.82 1362.92 543.6 1354.32 543.6L1350.81 543.6L1350.81 525.32L1210.96 525.32L1208.06 515.71L1350.81 515.71L1350.81 454L1225.96 454L1223.06 444.7L1350.81 444.7L1350.81 386.1L1218.93 386.1L1216.04 377.2L1283.23 377.2L1283.23 255.56L1319.71 259.39C1319.4 263.92 1316.2 267.12 1308.23 268.37L1308.23 377.2L1347.6 377.2ZM1673.7 319.93C1678.15 313.84 1684.25 303.6 1688.07 294.93L1483.93 294.93C1483.62 310.95 1476.9 321.18 1468.62 325.95C1460.57 330.17 1449.4 329.15 1446.2 320.56C1443.62 312.51 1448.78 306.42 1456.43 302.9C1466.35 298.45 1475.34 285.01 1474.01 271.26L1479.48 271.26C1481.35 276.34 1482.68 281.18 1483.31 285.64L1689.09 285.64L1703.46 271.26L1729.71 296.18C1727.14 298.45 1723.62 299.07 1717.53 299.39C1707.6 307.43 1690.03 317.04 1677.53 322.12L1673.7 319.93ZM1328.07 350.95C1336.04 332.04 1345.34 301.03 1352.06 273.53L1388.85 285.64C1387.6 289.46 1383.78 292.04 1377.06 291.73C1364.25 314.15 1348.23 337.82 1332.84 353.84L1328.07 350.95ZM1235.26 345.79C1234.31 324.07 1222.14 296.89 1211.28 278.92L1215.42 277.04C1283.23 316.73 1258.31 367.9 1235.26 345.79ZM930.07 523.98Q930.96 524.57 932.25 524.57Q933.52 524.57 934.71 524.25Q940.52 522.66 944.21 513.29L1012.58 349.91Q1017.02 339.32 1021.29 330.6Q1025.56 321.89 1029.31 314.71Q1030.34 312.81 1031.76 311.29Q1037.5 305.14 1049.82 305.14Q1049.93 305.14 1050.03 305.11Q1051.19 304.78 1051.19 300.35Q1051.19 297.96 1050.51 295.23L1015.99 296.93Q1013.6 296.93 1004.54 296.42Q995.48 295.91 979.42 295.23Q978.05 296.59 978.05 300.69Q978.05 304.75 979.19 305.1Q979.3 305.14 979.42 305.14Q983.18 305.14 988.82 306.33Q994.46 307.53 998.9 310.44Q1001.3 312 1002.4 314.21Q1003.35 316.1 1003.35 318.47Q1003.35 325.99 996.85 342.39L945.58 466.12Q945.38 466.63 945.07 467.07Q944.34 468.09 943.02 468.69Q942.04 469.13 941.29 468.88Q940.6 468.65 940.11 467.83Q937.38 461.34 933.79 452.28Q930.2 443.22 925.41 431.6Q882.35 326.33 882.35 316.42Q882.35 314.57 883.04 313.03Q884.52 309.74 889.18 307.87Q896.02 305.14 902.51 305.14Q902.56 305.14 902.6 305.13Q903.55 304.94 903.71 300.87Q903.88 296.59 903.2 295.23Q886.11 295.91 875.51 296.42Q864.91 296.93 860.81 296.93Q850.22 296.93 839.96 296.25Q829.71 295.57 821.51 295.23Q820.14 296.59 820.14 300.69Q820.14 304.75 821.28 305.1Q821.39 305.14 821.51 305.14Q825.95 305.14 833.47 307.19Q840.99 309.24 843.38 313Q850.22 323.25 858.76 345.81L928.83 522.52Q929.3 523.47 930.07 523.98ZM1731.59 447.28C1730.65 450.79 1727.45 452.35 1723 452.35L1607.45 452.35C1637.53 482.12 1690.65 503.92 1738.31 512.2L1738 515.71C1727.14 518.29 1718.85 526.96 1715.96 539.7C1667.29 524.07 1625.1 494.62 1599.48 454L1599.48 539.07C1599.48 541.65 1587.92 546.81 1577.68 546.81L1572.92 546.81L1572.92 470.01C1539.64 501.03 1492.29 525.01 1438.85 540.09L1436.28 535.25C1483.62 515.4 1525.89 484.7 1552.76 452.35L1444.87 452.35L1442.37 443.06L1572.92 443.06L1572.92 411.73C1541.51 421.03 1501.51 426.1 1450.65 429L1449.4 423.6C1505.42 416.57 1549.25 407.28 1581.2 391.26C1556.59 386.1 1529.4 381.65 1500.26 378.45C1507.29 370.48 1517.21 357.67 1526.82 344.85L1458.7 344.85L1456.12 335.25L1533.54 335.25C1544.09 320.25 1553.39 305.79 1558.15 296.89L1594.32 311.57C1592.76 314.78 1589.56 317.04 1580.26 315.71C1576.12 321.18 1570.96 327.9 1565.26 335.25L1677.53 335.25L1692.92 316.03C1692.92 316.03 1710.81 329.46 1721.35 339.7C1720.73 343.29 1717.84 344.85 1713.39 344.85L1662.21 344.85C1653.85 359.54 1643.93 372.04 1632.14 381.96C1734.48 399.54 1706.98 430.32 1681.04 421.03C1662.84 412.35 1638.15 404.39 1609.4 397.35C1599.79 402.12 1589.25 406.65 1578 410.48L1611.28 413.68C1610.65 418.14 1607.76 421.34 1599.48 422.59L1599.48 443.06L1686.2 443.06L1702.21 422.59C1702.21 422.59 1720.42 437.04 1731.59 447.28ZM528.23 329.46L528.23 414.62L615.27 414.62L615.27 329.46L528.23 329.46ZM641.83 329.46L641.83 414.62L728.86 414.62L728.86 329.46L641.83 329.46ZM1602.37 378.14C1614.17 368.84 1624.09 357.98 1631.12 344.85L1557.84 344.85C1550.18 354.78 1541.9 364.39 1534.17 372.98C1560.42 374.31 1583.15 375.87 1602.37 378.14ZM2021.28 404.39L2021.28 356.34L1943.54 356.34L1943.54 404.39L2021.28 404.39ZM1848.46 498.45C1862.53 490.79 1878.85 481.81 1894.56 472.82L1897.14 476.73C1885.57 487.59 1863.54 509 1838.23 531.42C1836.28 537.82 1831.82 541.96 1828.31 543.6L1813.23 513.84C1823.15 508.37 1824.79 506.42 1824.79 500.71L1824.79 358.92L1859.01 362.75C1858.39 366.96 1855.5 369.46 1848.46 370.79L1848.46 498.45ZM2030.89 514.78L2030.89 458.76L1943.54 458.76L1943.54 514.78L2030.89 514.78Z" fill="#C6DCF2" fill-opacity="1.000000" fill-rule="evenodd"/>
		<path id="Chinese Vocal Synthesis Archive" d="M1878.12 777.59L1860.98 737.28L1843.85 777.59L1878.12 777.59ZM1883.49 790.4L1897.78 824L1912.97 824L1860.98 706.38L1808.95 824L1824.19 824L1838.38 790.4L1883.49 790.4ZM304.5 745.93Q299.19 755.47 299.19 767.98Q299.19 779.85 304.07 789.17Q304.51 790.03 305.01 790.87Q309.04 797.69 314.76 802.48Q317.37 804.66 320.32 806.42Q324.94 809.15 329.93 810.54Q335.15 812 340.79 812Q348.8 812 355.44 809.93Q362.08 807.82 367.51 804.07Q372.98 800.32 376.8 795.36L376.8 813.29Q370.43 818.93 362.99 821.96Q362.23 822.27 361.45 822.55Q353.13 825.6 340.79 825.6Q330.46 825.6 321.32 822.3Q320.13 821.87 318.95 821.38Q313.25 818.99 308.32 815.5Q304.47 812.78 301.1 809.39Q299.52 807.78 298.08 806.06Q292.55 799.44 289.11 791.07Q284.81 780.48 284.81 767.98Q284.81 755.52 289.11 744.97Q292.68 736.25 298.51 729.46Q299.76 728.01 301.1 726.65Q304.68 723.04 308.79 720.19Q313.52 716.92 318.95 714.66Q320.27 714.11 321.62 713.63Q330.63 710.4 340.79 710.4Q353.13 710.4 361.45 713.45Q362.12 713.69 362.78 713.95Q370.34 716.96 376.8 722.71L376.8 740.64Q372.98 735.68 367.51 731.93Q362.08 728.18 355.44 726.1Q348.8 724 340.79 724Q335.23 724 330.06 725.43Q325 726.84 320.32 729.62Q317.22 731.45 314.5 733.75Q308.94 738.44 305.01 745.05Q304.75 745.49 304.5 745.93ZM1214.63 797.43L1225.49 790.09Q1229.31 796.81 1233.56 801.93Q1237.82 807.04 1243.1 809.93Q1243.37 810.08 1243.63 810.21Q1248.71 812.78 1255.1 812.78Q1262.71 812.78 1267.77 809.19Q1268.66 808.56 1269.47 807.82Q1271.9 805.62 1273.26 802.88Q1274.93 799.46 1274.93 795.21Q1274.93 787.67 1271.42 783.21Q1267.91 778.72 1262.21 775.91Q1256.54 773.1 1250.14 770.87Q1245.96 769.43 1240.84 767.12Q1235.72 764.78 1231.06 761.18Q1229.8 760.19 1228.65 759.06Q1225.64 756.13 1223.5 752.32Q1220.53 747.04 1220.53 739.35Q1220.53 733.33 1222.68 728.24Q1223.52 726.28 1224.67 724.46Q1225.89 722.55 1227.38 720.87Q1230.99 716.81 1236.18 714.15Q1243.56 710.4 1253.03 710.4Q1262.13 710.4 1268.92 713.84Q1275.12 716.97 1279.67 721.7Q1280.1 722.16 1280.53 722.63Q1285.32 727.98 1288.06 733.92L1276.39 740.64Q1274.28 736.46 1271.06 732.47Q1270.05 731.19 1268.89 730.06Q1266.43 727.67 1263.34 725.95Q1258.77 723.37 1252.21 723.37Q1243.1 723.37 1238.92 727.78Q1236.07 730.79 1235.18 734.29Q1234.78 735.89 1234.78 737.59Q1234.78 740.05 1235.44 742.32Q1236.05 744.33 1237.17 746.18Q1239.59 750.09 1245.25 753.53Q1250.92 756.96 1260.68 760.32Q1265.17 761.93 1270.14 764.5Q1270.35 764.62 1270.56 764.73Q1275.28 767.22 1279.31 770.99Q1279.65 771.3 1279.98 771.62Q1283.79 775.33 1286.27 780.4Q1289 785.91 1289 793.6Q1289 800.95 1286.18 806.89Q1284.57 810.3 1282.27 813.14Q1280.59 815.21 1278.53 816.96Q1277.15 818.14 1275.66 819.16Q1271.9 821.75 1267.48 823.37Q1265.9 823.94 1264.28 824.37Q1259.62 825.6 1254.63 825.6Q1247.96 825.6 1242.02 823.52Q1239.81 822.75 1237.71 821.69Q1234.23 819.91 1231.13 817.62Q1227.34 814.83 1224.12 811.26Q1218.3 804.78 1214.63 797.43ZM805.39 712L842.18 798.72L878.98 712L894.17 712L842.18 829.58L790.15 712L805.39 712ZM557.58 804.67L557.58 748.4L566.75 748.4L566.75 827.77L509.51 767.73L509.51 824L500.33 824L500.33 744.6L557.58 804.67ZM1099.87 792.67L1088.3 765.46L1076.74 792.67L1099.87 792.67ZM1103.5 801.32L1113.14 824L1123.4 824L1088.3 744.6L1053.18 824L1063.46 824L1073.05 801.32L1103.5 801.32ZM1422.69 804.67L1422.69 748.4L1431.87 748.4L1431.87 827.77L1374.63 767.73L1374.63 824L1365.45 824L1365.45 744.6L1422.69 804.67ZM638.9 806.07L646.23 801.11Q648.81 805.64 651.69 809.1Q654.56 812.55 658.12 814.5Q658.3 814.6 658.48 814.69Q661.91 816.43 666.22 816.43Q671.35 816.43 674.77 814.01Q675.37 813.58 675.92 813.08Q677.56 811.59 678.47 809.74Q679.61 807.43 679.61 804.56Q679.61 799.47 677.24 796.47Q674.86 793.44 671.01 791.54Q667.19 789.64 662.87 788.14Q660.05 787.16 656.59 785.6Q653.14 784.02 650 781.6Q649.14 780.93 648.36 780.17Q646.33 778.19 644.88 775.61Q642.88 772.05 642.88 766.86Q642.88 762.8 644.34 759.36Q644.9 758.04 645.68 756.81Q646.5 755.52 647.5 754.39Q649.94 751.64 653.45 749.85Q658.44 747.32 664.82 747.32Q670.96 747.32 675.55 749.64Q679.73 751.76 682.8 754.95Q683.1 755.25 683.38 755.57Q686.62 759.18 688.47 763.19L680.59 767.73Q679.16 764.91 677 762.22Q676.31 761.35 675.53 760.59Q673.87 758.98 671.78 757.81Q668.69 756.07 664.26 756.07Q658.12 756.07 655.3 759.05Q653.38 761.08 652.78 763.44Q652.5 764.52 652.5 765.67Q652.5 767.33 652.96 768.86Q653.36 770.22 654.11 771.47Q655.75 774.11 659.57 776.43Q663.39 778.75 669.99 781.02Q673.02 782.1 676.37 783.84Q676.51 783.91 676.66 783.99Q679.84 785.67 682.56 788.22Q682.79 788.42 683.01 788.64Q685.58 791.15 687.26 794.57Q689.1 798.29 689.1 803.48Q689.1 808.44 687.2 812.45Q686.12 814.75 684.56 816.67Q683.42 818.06 682.04 819.25Q681.1 820.04 680.09 820.73Q677.56 822.48 674.57 823.57Q673.51 823.96 672.42 824.25Q669.27 825.08 665.9 825.08Q661.4 825.08 657.39 823.67Q655.9 823.15 654.48 822.44Q652.13 821.24 650.04 819.7Q647.48 817.81 645.31 815.4Q641.38 811.02 638.9 806.07ZM902.01 801.19Q899.29 794.21 899.29 786.18Q899.29 777.88 902.14 770.81Q904.33 765.4 907.86 761.08Q908.96 759.74 910.18 758.5Q911.75 756.92 913.48 755.54Q917.49 752.36 922.39 750.3Q922.88 750.09 923.37 749.9Q930 747.32 937.63 747.32Q945.94 747.32 952.9 750.3Q957.74 752.34 961.71 755.49Q963.47 756.89 965.05 758.5Q966.45 759.9 967.67 761.43Q971.01 765.62 973.1 770.81Q975.97 777.88 975.97 786.18Q975.97 794.09 973.32 800.96Q973.21 801.25 973.1 801.53Q971 806.78 967.62 811.01Q966.42 812.52 965.05 813.9Q963.53 815.45 961.84 816.8Q957.82 820.02 952.9 822.12Q945.94 825.08 937.63 825.08Q929.88 825.08 923.17 822.44Q922.78 822.29 922.39 822.12Q917.41 820.01 913.34 816.75Q911.69 815.42 910.18 813.9Q908.99 812.68 907.91 811.36Q904.35 807 902.14 801.53Q902.07 801.36 902.01 801.19ZM997.91 771.3Q994.32 777.74 994.32 786.18Q994.32 794.2 997.61 800.49Q997.91 801.07 998.25 801.64Q1000.97 806.24 1004.84 809.47Q1006.59 810.94 1008.59 812.13Q1011.7 813.97 1015.07 814.91Q1018.6 815.9 1022.4 815.9Q1027.81 815.9 1032.29 814.5Q1036.77 813.08 1040.43 810.55Q1044.13 808.02 1046.71 804.67L1046.71 816.77Q1042.41 820.57 1037.39 822.62Q1036.87 822.83 1036.35 823.02Q1030.73 825.08 1022.4 825.08Q1015.43 825.08 1009.26 822.85Q1008.46 822.56 1007.66 822.23Q1003.81 820.61 1000.49 818.26Q997.89 816.42 995.61 814.13Q994.54 813.05 993.57 811.89Q989.84 807.42 987.51 801.77Q984.61 794.62 984.61 786.18Q984.61 777.77 987.51 770.65Q989.93 764.76 993.86 760.18Q994.7 759.21 995.61 758.29Q998.03 755.85 1000.81 753.93Q1004 751.72 1007.66 750.19Q1008.55 749.82 1009.46 749.5Q1015.54 747.32 1022.4 747.32Q1030.73 747.32 1036.35 749.38Q1036.8 749.54 1037.24 749.72Q1042.35 751.74 1046.71 755.63L1046.71 767.73Q1044.13 764.38 1040.43 761.85Q1036.77 759.32 1032.29 757.92Q1027.81 756.5 1022.4 756.5Q1018.65 756.5 1015.16 757.46Q1011.74 758.41 1008.59 760.29Q1006.49 761.53 1004.66 763.08Q1000.91 766.24 998.25 770.71Q998.07 771 997.91 771.3ZM1631.46 806.07L1638.79 801.11Q1641.37 805.64 1644.24 809.1Q1647.12 812.55 1650.68 814.5Q1650.85 814.6 1651.03 814.69Q1654.46 816.43 1658.77 816.43Q1663.91 816.43 1667.33 814.01Q1667.93 813.58 1668.47 813.08Q1670.12 811.59 1671.03 809.74Q1672.17 807.43 1672.17 804.56Q1672.17 799.47 1669.79 796.47Q1667.42 793.44 1663.57 791.54Q1659.75 789.64 1655.42 788.14Q1652.6 787.16 1649.15 785.6Q1645.69 784.02 1642.56 781.6Q1641.69 780.93 1640.92 780.17Q1638.89 778.19 1637.44 775.61Q1635.44 772.05 1635.44 766.86Q1635.44 762.8 1636.9 759.36Q1637.46 758.04 1638.23 756.81Q1639.06 755.52 1640.06 754.39Q1642.5 751.64 1646.01 749.85Q1650.99 747.32 1657.37 747.32Q1663.52 747.32 1668.11 749.64Q1672.29 751.76 1675.36 754.95Q1675.65 755.25 1675.94 755.57Q1679.18 759.18 1681.03 763.19L1673.14 767.73Q1671.72 764.91 1669.56 762.22Q1668.87 761.35 1668.08 760.59Q1666.43 758.98 1664.34 757.81Q1661.25 756.07 1656.82 756.07Q1650.68 756.07 1647.86 759.05Q1645.94 761.08 1645.34 763.44Q1645.06 764.52 1645.06 765.67Q1645.06 767.33 1645.51 768.86Q1645.91 770.22 1646.67 771.47Q1648.3 774.11 1652.13 776.43Q1655.95 778.75 1662.54 781.02Q1665.57 782.1 1668.92 783.84Q1669.07 783.91 1669.22 783.99Q1672.4 785.67 1675.12 788.22Q1675.35 788.42 1675.57 788.64Q1678.14 791.15 1679.81 794.57Q1681.66 798.29 1681.66 803.48Q1681.66 808.44 1679.76 812.45Q1678.68 814.75 1677.11 816.67Q1675.98 818.06 1674.59 819.25Q1673.66 820.04 1672.65 820.73Q1670.11 822.48 1667.13 823.57Q1666.06 823.96 1664.97 824.25Q1661.82 825.08 1658.46 825.08Q1653.95 825.08 1649.94 823.67Q1648.46 823.15 1647.04 822.44Q1644.69 821.24 1642.59 819.7Q1640.04 817.81 1637.86 815.4Q1633.93 811.02 1631.46 806.07ZM1717.1 806.07L1724.43 801.11Q1727.01 805.64 1729.89 809.1Q1732.76 812.55 1736.32 814.5Q1736.5 814.6 1736.68 814.69Q1740.11 816.43 1744.42 816.43Q1749.55 816.43 1752.97 814.01Q1753.57 813.58 1754.12 813.08Q1755.76 811.59 1756.67 809.74Q1757.81 807.43 1757.81 804.56Q1757.81 799.47 1755.44 796.47Q1753.06 793.44 1749.21 791.54Q1745.39 789.64 1741.07 788.14Q1738.25 787.16 1734.79 785.6Q1731.34 784.02 1728.2 781.6Q1727.34 780.93 1726.56 780.17Q1724.53 778.19 1723.08 775.61Q1721.08 772.05 1721.08 766.86Q1721.08 762.8 1722.54 759.36Q1723.1 758.04 1723.88 756.81Q1724.7 755.52 1725.7 754.39Q1728.14 751.64 1731.65 749.85Q1736.64 747.32 1743.02 747.32Q1749.16 747.32 1753.75 749.64Q1757.93 751.76 1761 754.95Q1761.3 755.25 1761.58 755.57Q1764.82 759.18 1766.67 763.19L1758.79 767.73Q1757.36 764.91 1755.2 762.22Q1754.51 761.35 1753.73 760.59Q1752.07 758.98 1749.98 757.81Q1746.89 756.07 1742.46 756.07Q1736.32 756.07 1733.5 759.05Q1731.58 761.08 1730.98 763.44Q1730.7 764.52 1730.7 765.67Q1730.7 767.33 1731.16 768.86Q1731.56 770.22 1732.31 771.47Q1733.95 774.11 1737.77 776.43Q1741.59 778.75 1748.19 781.02Q1751.22 782.1 1754.57 783.84Q1754.71 783.91 1754.86 783.99Q1758.04 785.67 1760.76 788.22Q1760.99 788.42 1761.21 788.64Q1763.78 791.15 1765.46 794.57Q1767.3 798.29 1767.3 803.48Q1767.3 808.44 1765.4 812.45Q1764.32 814.75 1762.76 816.67Q1761.62 818.06 1760.24 819.25Q1759.3 820.04 1758.29 820.73Q1755.76 822.48 1752.77 823.57Q1751.71 823.96 1750.62 824.25Q1747.47 825.08 1744.1 825.08Q1739.6 825.08 1735.59 823.67Q1734.1 823.15 1732.68 822.44Q1730.33 821.24 1728.24 819.7Q1725.68 817.81 1723.51 815.4Q1719.58 811.02 1717.1 806.07ZM1991.87 771.3Q1988.28 777.74 1988.28 786.18Q1988.28 794.2 1991.57 800.49Q1991.87 801.07 1992.21 801.64Q1994.93 806.24 1998.79 809.47Q2000.55 810.94 2002.54 812.13Q2005.66 813.97 2009.03 814.91Q2012.55 815.9 2016.36 815.9Q2021.76 815.9 2026.25 814.5Q2030.73 813.08 2034.39 810.55Q2038.08 808.02 2040.67 804.67L2040.67 816.77Q2036.36 820.57 2031.34 822.62Q2030.83 822.83 2030.31 823.02Q2024.69 825.08 2016.36 825.08Q2009.39 825.08 2003.22 822.85Q2002.41 822.56 2001.62 822.23Q1997.77 820.61 1994.44 818.26Q1991.85 816.42 1989.57 814.13Q1988.5 813.05 1987.53 811.89Q1983.8 807.42 1981.47 801.77Q1978.57 794.62 1978.57 786.18Q1978.57 777.77 1981.47 770.65Q1983.89 764.76 1987.82 760.18Q1988.66 759.21 1989.57 758.29Q1991.99 755.85 1994.76 753.93Q1997.95 751.72 2001.62 750.19Q2002.51 749.82 2003.42 749.5Q2009.5 747.32 2016.36 747.32Q2024.69 747.32 2030.31 749.38Q2030.76 749.54 2031.2 749.72Q2036.3 751.74 2040.67 755.63L2040.67 767.73Q2038.08 764.38 2034.39 761.85Q2030.73 759.32 2026.25 757.92Q2021.76 756.5 2016.36 756.5Q2012.6 756.5 2009.12 757.46Q2005.7 758.41 2002.54 760.29Q2000.45 761.53 1998.61 763.08Q1994.86 766.24 1992.21 770.71Q1992.03 771 1991.87 771.3ZM396.65 824L396.65 748.4L405.83 748.4L405.83 778.64L447.41 778.64L447.41 748.4L456.59 748.4L456.59 824L447.41 824L447.41 787.27L405.83 787.27L405.83 824L396.65 824ZM473.87 824L473.87 748.4L483.05 748.4L483.05 824L473.87 824ZM584.03 824L584.03 748.4L627.22 748.4L627.22 757.02L593.21 757.02L593.21 778.64L625.06 778.64L625.06 787.27L593.21 787.27L593.21 815.35L627.22 815.35L627.22 824L584.03 824ZM702.62 824L702.62 748.4L745.81 748.4L745.81 757.02L711.79 757.02L711.79 778.64L743.65 778.64L743.65 787.27L711.79 787.27L711.79 815.35L745.81 815.35L745.81 824L702.62 824ZM1132.57 824L1132.57 748.4L1141.76 748.4L1141.76 815.35L1171.44 815.35L1171.44 824L1132.57 824ZM1326.46 783.39L1346 748.4L1356.25 748.4L1331.1 791.38L1331.1 824L1321.92 824L1321.92 791.48L1296.74 748.4L1307.02 748.4L1326.46 783.39ZM1461.02 757.02L1441.58 757.02L1441.58 748.4L1489.65 748.4L1489.65 757.02L1470.19 757.02L1470.19 824L1461.02 824L1461.02 757.02ZM1499.37 824L1499.37 748.4L1508.55 748.4L1508.55 778.64L1550.13 778.64L1550.13 748.4L1559.3 748.4L1559.3 824L1550.13 824L1550.13 787.27L1508.55 787.27L1508.55 824L1499.37 824ZM1576.59 824L1576.59 748.4L1619.78 748.4L1619.78 757.02L1585.77 757.02L1585.77 778.64L1617.62 778.64L1617.62 787.27L1585.77 787.27L1585.77 815.35L1619.78 815.35L1619.78 824L1576.59 824ZM1695.17 824L1695.17 748.4L1704.35 748.4L1704.35 824L1695.17 824ZM1922.42 824L1922.42 748.4L1942.93 748.4Q1950.26 748.4 1956.04 751.17Q1959.89 752.99 1962.68 755.85Q1964.1 757.29 1965.24 759Q1965.61 759.56 1965.95 760.14Q1968.64 764.83 1968.64 771.08Q1968.64 776.82 1966.29 781.34Q1965.81 782.26 1965.24 783.13Q1964.08 784.87 1962.64 786.34Q1959.86 789.19 1956.04 791.01Q1953.49 792.22 1950.64 792.9L1973.18 824L1961.84 824L1940.8 793.75L1931.59 793.75L1931.59 824L1922.42 824ZM1931.59 785.66L1942.93 785.66Q1947.78 785.66 1951.5 783.94Q1954.16 782.71 1956 780.71Q1956.74 779.9 1957.35 778.96Q1959.46 775.72 1959.46 771.08Q1959.46 766.44 1957.35 763.19Q1956.72 762.21 1955.93 761.38Q1954.12 759.43 1951.5 758.24Q1947.78 756.5 1942.93 756.5L1931.59 756.5L1931.59 785.66ZM2056.87 824L2056.87 748.4L2066.05 748.4L2066.05 778.64L2107.63 778.64L2107.63 748.4L2116.81 748.4L2116.81 824L2107.63 824L2107.63 787.27L2066.05 787.27L2066.05 824L2056.87 824ZM2134.1 824L2134.1 748.4L2143.27 748.4L2143.27 824L2134.1 824ZM2162.72 748.4L2187.56 806.94L2212.39 748.4L2222.64 748.4L2187.56 827.77L2152.44 748.4L2162.72 748.4ZM2231.84 824L2231.84 748.4L2275.03 748.4L2275.03 757.02L2241.01 757.02L2241.01 778.64L2272.87 778.64L2272.87 787.27L2241.01 787.27L2241.01 815.35L2275.03 815.35L2275.03 824L2231.84 824ZM912.04 772.27Q909 778.48 909 786.18Q909 794 912.11 800.28Q912.4 800.86 912.71 801.43Q914.78 805.12 917.68 807.96Q920.03 810.27 922.95 812.02Q924.36 812.87 925.85 813.53Q931.22 815.9 937.63 815.9Q944.6 815.9 950.25 813.17Q951.34 812.65 952.37 812.02Q955.15 810.34 957.43 808.13Q960.41 805.23 962.52 801.43Q962.84 800.86 963.13 800.28Q966.24 794 966.24 786.18Q966.24 778.48 963.2 772.27Q962.88 771.61 962.52 770.97Q960.39 767.13 957.36 764.22Q955.11 762.05 952.37 760.4Q951.28 759.73 950.13 759.18Q944.53 756.5 937.63 756.5Q931.29 756.5 925.97 758.83Q924.41 759.51 922.95 760.4Q920.07 762.11 917.74 764.38Q914.8 767.24 912.71 770.97Q912.36 771.61 912.04 772.27Z" fill="#C6DCF2" fill-opacity="1.000000" fill-rule="evenodd"/>
	</g>
</svg>
