<svg width="2182.000000" height="523.000000" viewBox="0 0 2182 523" fill="none" xmlns="http://www.w3.org/2000/svg" xmlns:xlink="http://www.w3.org/1999/xlink">
	<desc>
			Created with Pixso.
	</desc>
	<defs>
		<clipPath id="clip43_9">
			<rect id="TitleBar Light" width="2182.000000" height="523.000000" fill="white" fill-opacity="0"/>
		</clipPath>
	</defs>
	<rect id="TitleBar Light" width="2182.000000" height="523.000000" fill="#141414" fill-opacity="0"/>
	<g clip-path="url(#clip43_9)">
		<path id="Chinese Vocal Synthesis Archive" d="M1703.28 199.61L1717.94 234.24L1733.53 234.24L1680.18 113L1626.8 234.24L1642.43 234.24L1656.99 199.61L1703.28 199.61ZM77.74 176.5Q77.74 163.51 83.28 153.62Q83.49 153.24 83.72 152.86Q87.81 145.95 93.61 141.08Q96.33 138.79 99.43 136.95C105.89 133.09 112.89 131.16 120.43 131.16Q128.64 131.16 135.46 133.33Q142.27 135.46 147.84 139.33C151.58 141.91 154.76 144.9 157.38 148.31L157.38 129.83Q150.69 123.85 142.85 120.75L142.85 120.75Q142.24 120.51 141.63 120.28Q133.09 117.14 120.43 117.14Q110.09 117.14 100.91 120.41Q99.45 120.93 98.02 121.53Q92.56 123.81 87.8 127.1L87.8 127.1Q83.47 130.08 79.71 133.89Q78.42 135.2 77.22 136.59L77.22 136.59Q71.12 143.66 67.4 152.78Q63 163.65 63 176.5Q63 189.38 67.4 200.29C70.37 207.54 74.47 213.84 79.71 219.18Q83.26 222.76 87.31 225.62L87.31 225.62Q92.29 229.12 98.02 231.54C104.97 234.44 112.44 235.89 120.43 235.89C128.87 235.89 135.94 234.84 141.63 232.75C147.32 230.65 152.57 227.47 157.38 223.2L157.38 204.72C154.76 208.13 151.58 211.12 147.84 213.7C144.13 216.28 140 218.29 135.46 219.74C130.92 221.16 125.91 221.88 120.43 221.88Q114.7 221.88 109.38 220.39Q104.21 218.96 99.43 216.12Q96.48 214.36 93.88 212.19Q87.9 207.22 83.72 200.09C79.73 193.27 77.74 185.41 77.74 176.5ZM1028.15 199.29L1017.01 206.86C1019.52 211.9 1022.76 216.65 1026.75 221.11C1030.75 225.57 1035.4 229.15 1040.68 231.86C1046.01 234.55 1051.8 235.89 1058.05 235.89C1062.64 235.89 1067.04 235.12 1071.23 233.59C1075.46 232.04 1079.24 229.83 1082.57 226.99C1085.92 224.12 1088.53 220.65 1090.43 216.6Q1093.31 210.48 1093.31 202.91C1093.31 197.62 1092.38 193.09 1090.51 189.3C1088.67 185.52 1086.29 182.28 1083.38 179.6C1080.49 176.88 1077.35 174.66 1073.96 172.91C1070.56 171.14 1067.32 169.7 1064.26 168.6C1057.57 166.29 1052.3 163.96 1048.43 161.6Q1042.62 158.05 1040.13 154.03C1038.5 151.32 1037.68 148.36 1037.68 145.17C1037.68 141.44 1039.1 138.07 1041.93 135.06C1044.79 132.03 1049.34 130.51 1055.56 130.51C1060.05 130.51 1063.86 131.4 1066.99 133.17C1070.11 134.91 1072.76 137.16 1074.92 139.89C1077.11 142.63 1078.93 145.44 1080.37 148.31L1092.36 141.38C1090.48 137.3 1087.91 133.42 1084.62 129.75C1081.32 126.07 1077.37 123.05 1072.72 120.69C1068.06 118.32 1062.63 117.14 1056.4 117.14C1049.93 117.14 1044.18 118.43 1039.13 121.01Q1033.86 123.71 1030.18 127.84L1030.17 127.84Q1028.59 129.61 1027.31 131.64C1024.47 136.15 1023.06 141.26 1023.06 146.98C1023.06 152.27 1024.06 156.72 1026.1 160.35C1028.14 163.97 1030.73 167.02 1033.88 169.49C1037.06 171.96 1040.4 174 1043.9 175.61C1047.4 177.19 1050.57 178.48 1053.43 179.48C1057.81 181.01 1061.94 182.74 1065.81 184.67C1069.72 186.6 1072.88 189.11 1075.28 192.2C1077.68 195.26 1078.89 199.38 1078.89 204.56C1078.89 209.82 1077.02 214.16 1073.28 217.57C1069.56 220.98 1064.65 222.68 1058.53 222.68C1053.93 222.68 1049.82 221.7 1046.22 219.74C1042.62 217.76 1039.36 215 1036.43 211.49C1033.53 207.97 1030.77 203.9 1028.15 199.29ZM634.87 208.19L597.12 118.79L581.48 118.79L634.87 240L688.21 118.79L672.62 118.79L634.87 208.19ZM1680.18 144.85L1697.76 186.4L1662.6 186.4L1680.18 144.85ZM342.86 156.31L342.86 214.31L284.13 152.4L284.13 234.24L293.54 234.24L293.54 176.24L352.27 238.12L352.27 156.31L342.86 156.31ZM902.98 210.86L912.87 234.24L923.4 234.24L887.39 152.4L851.35 234.24L861.91 234.24L871.74 210.86L902.98 210.86ZM1230.49 156.31L1230.49 214.31L1171.75 152.4L1171.75 234.24L1181.17 234.24L1181.17 176.24L1239.9 238.12L1239.9 156.31L1230.49 156.31ZM433.82 210.65L426.3 215.76C427.99 219.16 430.18 222.37 432.87 225.38C435.58 228.38 438.71 230.8 442.29 232.63C445.87 234.45 449.78 235.35 454 235.35C457.1 235.35 460.07 234.84 462.9 233.8C465.75 232.75 468.3 231.27 470.56 229.35C472.81 227.41 474.58 225.07 475.86 222.33C477.16 219.58 477.81 216.5 477.81 213.09C477.81 209.52 477.17 206.46 475.91 203.9C474.67 201.35 473.06 199.17 471.1 197.35C469.15 195.52 467.03 194.02 464.74 192.84C462.45 191.65 460.27 190.68 458.19 189.93C453.68 188.38 450.12 186.8 447.51 185.21C444.89 183.61 443.02 181.91 441.91 180.1C440.81 178.27 440.26 176.27 440.26 174.12C440.26 171.6 441.21 169.32 443.12 167.29C445.05 165.25 448.12 164.22 452.32 164.22C455.35 164.22 457.92 164.82 460.03 166.02C462.14 167.19 463.93 168.71 465.39 170.56C466.87 172.4 468.09 174.3 469.07 176.24L477.16 171.56C475.89 168.81 474.15 166.19 471.94 163.71C469.72 161.22 467.04 159.18 463.9 157.59C460.76 156 457.09 155.2 452.89 155.2C448.53 155.2 444.64 156.07 441.23 157.81Q437.67 159.63 435.19 162.42Q434.12 163.61 433.25 164.98C431.34 168.03 430.38 171.48 430.38 175.34C430.38 178.91 431.07 181.92 432.44 184.36C433.81 186.81 435.56 188.87 437.69 190.53C439.83 192.2 442.09 193.58 444.45 194.66C446.81 195.73 448.96 196.6 450.89 197.27C453.85 198.31 456.63 199.47 459.25 200.78C461.88 202.08 464.01 203.78 465.63 205.86C467.26 207.93 468.07 210.71 468.07 214.21C468.07 217.76 466.8 220.68 464.28 222.99C461.77 225.29 458.45 226.44 454.32 226.44C451.22 226.44 448.45 225.78 446.02 224.45C443.58 223.11 441.38 221.25 439.42 218.88C437.45 216.51 435.58 213.76 433.82 210.65ZM693.47 195.26C693.47 200.91 694.44 206.19 696.39 211.08C698.35 215.97 701.11 220.22 704.64 223.83C708.19 227.43 712.37 230.26 717.17 232.31C721.98 234.34 727.19 235.35 732.8 235.35C738.48 235.35 743.71 234.34 748.47 232.31C753.25 230.26 757.4 227.43 760.94 223.83Q762.28 222.47 763.47 220.99L763.47 220.98Q767 216.57 769.19 211.08C771.16 206.19 772.14 200.91 772.14 195.26C772.14 189.55 771.16 184.27 769.19 179.42Q767.02 173.98 763.52 169.62Q762.31 168.11 760.94 166.72C757.4 163.12 753.25 160.3 748.47 158.27C743.71 156.22 738.48 155.2 732.8 155.2C727.19 155.2 721.98 156.22 717.17 158.27Q712.22 160.36 708.16 163.57L708.16 163.57Q706.31 165.03 704.64 166.72C701.11 170.31 698.35 174.54 696.39 179.42C694.44 184.27 693.47 189.55 693.47 195.26ZM790.96 195.26C790.96 189.19 792.31 183.87 794.99 179.31C797.7 174.74 801.23 171.16 805.6 168.57C809.96 165.96 814.69 164.66 819.77 164.66Q825.32 164.66 829.92 166.12Q834.52 167.57 838.28 170.17C840.8 171.91 842.95 173.93 844.72 176.24L844.72 163.76C841.47 160.86 837.93 158.71 834.09 157.32C830.24 155.91 825.47 155.2 819.77 155.2C814.38 155.2 809.34 156.19 804.65 158.16C799.96 160.12 795.84 162.9 792.29 166.51C788.75 170.09 785.99 174.34 783.98 179.25C782 184.15 781.01 189.48 781.01 195.26C781.01 201.06 782 206.41 783.98 211.32C785.99 216.22 788.75 220.47 792.29 224.07C795.84 227.66 799.96 230.44 804.65 232.42C809.34 234.37 814.38 235.35 819.77 235.35C825.47 235.35 830.24 234.65 834.09 233.23C837.93 231.82 841.47 229.67 844.72 226.79L844.72 214.31C842.95 216.62 840.8 218.64 838.28 220.38C835.77 222.12 832.99 223.47 829.92 224.45C826.85 225.41 823.47 225.89 819.77 225.89C814.69 225.89 809.96 224.6 805.6 222.01C801.23 219.4 797.7 215.79 794.99 211.19C792.31 206.59 790.96 201.28 790.96 195.26ZM1452.2 210.65L1444.68 215.76C1446.38 219.16 1448.57 222.37 1451.25 225.38C1453.96 228.38 1457.1 230.8 1460.67 232.63C1464.26 234.45 1468.16 235.35 1472.38 235.35C1475.49 235.35 1478.45 234.84 1481.28 233.8C1484.13 232.75 1486.69 231.27 1488.94 229.35C1491.19 227.41 1492.96 225.07 1494.24 222.33Q1496.19 218.2 1496.19 213.09C1496.19 209.52 1495.56 206.46 1494.3 203.9C1493.05 201.35 1491.45 199.17 1489.48 197.35C1487.53 195.52 1485.41 194.02 1483.12 192.84C1480.83 191.65 1478.65 190.68 1476.58 189.93C1472.07 188.38 1468.51 186.8 1465.89 185.21C1463.28 183.61 1461.41 181.91 1460.29 180.1C1459.19 178.27 1458.64 176.27 1458.64 174.12C1458.64 171.6 1459.6 169.32 1461.51 167.29C1463.44 165.25 1466.5 164.22 1470.71 164.22C1473.74 164.22 1476.31 164.82 1478.42 166.02C1480.53 167.19 1482.31 168.71 1483.77 170.56C1485.25 172.4 1486.48 174.3 1487.45 176.24L1495.54 171.56C1494.28 168.81 1492.54 166.19 1490.32 163.71C1488.1 161.22 1485.42 159.18 1482.29 157.59C1479.15 156 1475.48 155.2 1471.27 155.2C1466.91 155.2 1463.02 156.07 1459.61 157.81C1456.22 159.55 1453.56 161.94 1451.63 164.98C1449.72 168.03 1448.77 171.48 1448.77 175.34C1448.77 178.91 1449.45 181.92 1450.82 184.36C1452.19 186.81 1453.94 188.87 1456.07 190.53C1458.22 192.2 1460.47 193.58 1462.83 194.66C1465.2 195.73 1467.34 196.6 1469.27 197.27Q1473.71 198.82 1477.63 200.78C1480.27 202.08 1482.39 203.78 1484.02 205.86C1485.64 207.93 1486.45 210.71 1486.45 214.21C1486.45 217.76 1485.19 220.68 1482.66 222.99C1480.16 225.29 1476.84 226.44 1472.71 226.44C1469.61 226.44 1466.84 225.78 1464.4 224.45C1461.97 223.11 1459.77 221.25 1457.8 218.88C1455.84 216.51 1453.97 213.76 1452.2 210.65ZM1540.07 210.65L1532.55 215.76C1534.25 219.16 1536.44 222.37 1539.13 225.38C1541.83 228.38 1544.97 230.8 1548.54 232.63C1552.13 234.45 1556.04 235.35 1560.26 235.35C1563.36 235.35 1566.32 234.84 1569.16 233.8C1572.01 232.75 1574.56 231.27 1576.81 229.35C1579.07 227.41 1580.83 225.07 1582.11 222.33Q1584.06 218.2 1584.06 213.09C1584.06 209.52 1583.43 206.46 1582.17 203.9C1580.92 201.35 1579.32 199.17 1577.35 197.35C1575.41 195.52 1573.29 194.02 1571 192.84C1568.71 191.65 1566.52 190.68 1564.45 189.93C1559.94 188.38 1556.38 186.8 1553.76 185.21C1551.15 183.61 1549.28 181.91 1548.16 180.1C1547.06 178.27 1546.51 176.27 1546.51 174.12C1546.51 171.6 1547.47 169.32 1549.38 167.29C1551.31 165.25 1554.38 164.22 1558.58 164.22C1561.61 164.22 1564.18 164.82 1566.29 166.02C1568.4 167.19 1570.18 168.71 1571.65 170.56C1573.12 172.4 1574.35 174.3 1575.32 176.24L1583.41 171.56C1582.15 168.81 1580.41 166.19 1578.19 163.71C1575.97 161.22 1573.3 159.18 1570.16 157.59C1567.02 156 1563.35 155.2 1559.15 155.2C1554.78 155.2 1550.9 156.07 1547.49 157.81C1544.1 159.55 1541.44 161.94 1539.51 164.98C1537.59 168.03 1536.64 171.48 1536.64 175.34C1536.64 178.91 1537.32 181.92 1538.69 184.36C1540.06 186.81 1541.81 188.87 1543.94 190.53C1546.09 192.2 1548.34 193.58 1550.71 194.66C1553.07 195.73 1555.21 196.6 1557.14 197.27C1560.1 198.31 1562.89 199.47 1565.5 200.78C1568.14 202.08 1570.27 203.78 1571.89 205.86C1573.51 207.93 1574.32 210.71 1574.32 214.21C1574.32 217.76 1573.06 220.68 1570.54 222.99C1568.03 225.29 1564.71 226.44 1560.58 226.44C1557.48 226.44 1554.71 225.78 1552.27 224.45C1549.84 223.11 1547.64 221.25 1545.67 218.88C1543.71 216.51 1541.84 213.76 1540.07 210.65ZM1810.79 195.26C1810.79 189.19 1812.13 183.87 1814.82 179.31C1817.52 174.74 1821.06 171.16 1825.42 168.57C1829.79 165.96 1834.51 164.66 1839.6 164.66C1843.3 164.66 1846.68 165.15 1849.74 166.12Q1854.34 167.57 1858.1 170.17Q1861.89 172.78 1864.54 176.24L1864.54 163.76C1861.3 160.86 1857.75 158.71 1853.91 157.32C1850.07 155.91 1845.3 155.2 1839.6 155.2C1834.21 155.2 1829.17 156.19 1824.48 158.16C1819.79 160.12 1815.67 162.9 1812.11 166.51C1808.58 170.09 1805.81 174.34 1803.81 179.25C1801.82 184.15 1800.83 189.48 1800.83 195.26C1800.83 201.06 1801.82 206.41 1803.81 211.32C1805.81 216.22 1808.58 220.47 1812.11 224.07C1815.67 227.66 1819.79 230.44 1824.48 232.42C1829.17 234.37 1834.21 235.35 1839.6 235.35Q1848.15 235.35 1853.91 233.23C1857.75 231.82 1861.3 229.67 1864.54 226.79L1864.54 214.31C1862.78 216.62 1860.63 218.64 1858.1 220.38C1855.6 222.12 1852.81 223.47 1849.74 224.45C1846.68 225.41 1843.3 225.89 1839.6 225.89C1834.51 225.89 1829.79 224.6 1825.42 222.01C1821.06 219.4 1817.52 215.79 1814.82 211.19C1812.13 206.59 1810.79 201.28 1810.79 195.26ZM177.75 156.31L177.75 234.24L187.16 234.24L187.16 196.38L229.83 196.38L229.83 234.24L239.24 234.24L239.24 156.31L229.83 156.31L229.83 187.49L187.16 187.49L187.16 156.31L177.75 156.31ZM256.98 156.31L256.98 234.24L266.39 234.24L266.39 156.31L256.98 156.31ZM370 156.31L370 234.24L414.32 234.24L414.32 225.32L379.42 225.32L379.42 196.38L412.1 196.38L412.1 187.49L379.42 187.49L379.42 165.2L414.32 165.2L414.32 156.31L370 156.31ZM491.67 156.31L491.67 234.24L535.99 234.24L535.99 225.32L501.09 225.32L501.09 196.38L533.77 196.38L533.77 187.49L501.09 187.49L501.09 165.2L535.99 165.2L535.99 156.31L491.67 156.31ZM932.82 156.31L932.82 234.24L972.7 234.24L972.7 225.32L942.24 225.32L942.24 156.31L932.82 156.31ZM1151.79 156.31L1131.75 192.38L1111.81 156.31L1101.26 156.31L1127.09 200.72L1127.09 234.24L1136.51 234.24L1136.51 200.62L1162.31 156.31L1151.79 156.31ZM1249.87 165.2L1269.81 165.2L1269.81 234.24L1279.22 234.24L1279.22 165.2L1299.18 165.2L1299.18 156.31L1249.87 156.31L1249.87 165.2ZM1309.16 156.31L1309.16 234.24L1318.57 234.24L1318.57 196.38L1361.24 196.38L1361.24 234.24L1370.65 234.24L1370.65 156.31L1361.24 156.31L1361.24 187.49L1318.57 187.49L1318.57 156.31L1309.16 156.31ZM1388.39 156.31L1388.39 234.24L1432.7 234.24L1432.7 225.32L1397.8 225.32L1397.8 196.38L1430.48 196.38L1430.48 187.49L1397.8 187.49L1397.8 165.2L1432.7 165.2L1432.7 156.31L1388.39 156.31ZM1510.06 156.31L1510.06 234.24L1519.47 234.24L1519.47 156.31L1510.06 156.31ZM1743.21 156.31L1743.21 234.24L1752.63 234.24L1752.63 203.06L1762.07 203.06L1783.66 234.24L1795.29 234.24L1772.17 202.18Q1775.09 201.48 1777.71 200.24C1781.68 198.33 1784.82 195.62 1787.15 192.11C1789.48 188.58 1790.64 184.43 1790.64 179.69C1790.64 174.87 1789.48 170.72 1787.15 167.24C1784.82 163.74 1781.68 161.05 1777.71 159.17C1773.76 157.26 1769.28 156.31 1764.26 156.31L1743.21 156.31ZM1881.17 156.31L1881.17 234.24L1890.59 234.24L1890.59 196.38L1933.25 196.38L1933.25 234.24L1942.67 234.24L1942.67 156.31L1933.25 156.31L1933.25 187.49L1890.59 187.49L1890.59 156.31L1881.17 156.31ZM1960.4 156.31L1960.4 234.24L1969.82 234.24L1969.82 156.31L1960.4 156.31ZM2015.25 216.65L1989.77 156.31L1979.22 156.31L2015.25 238.12L2051.26 156.31L2040.74 156.31L2015.25 216.65ZM2060.69 156.31L2060.69 234.24L2105 234.24L2105 225.32L2070.1 225.32L2070.1 196.38L2102.78 196.38L2102.78 187.49L2070.1 187.49L2070.1 165.2L2105 165.2L2105 156.31L2060.69 156.31ZM703.42 195.26C703.42 189.41 704.69 184.18 707.24 179.58C709.8 174.98 713.3 171.34 717.73 168.68C722.17 166 727.19 164.66 732.8 164.66Q739.82 164.66 745.54 167.39L745.54 167.39Q746.76 167.97 747.93 168.68C752.33 171.34 755.8 174.98 758.34 179.58C760.88 184.18 762.16 189.41 762.16 195.26C762.16 201.13 760.88 206.37 758.34 210.97C755.8 215.57 752.33 219.22 747.93 221.9C743.52 224.56 738.48 225.89 732.8 225.89C727.19 225.89 722.17 224.56 717.73 221.9C713.3 219.22 709.8 215.57 707.24 210.97C704.69 206.37 703.42 201.13 703.42 195.26ZM1752.63 194.72L1752.63 164.66L1764.26 164.66C1767.58 164.66 1770.51 165.26 1773.05 166.45C1775.62 167.63 1777.62 169.33 1779.06 171.56C1780.5 173.79 1781.23 176.5 1781.23 179.69C1781.23 182.88 1780.5 185.59 1779.06 187.81C1777.62 190.04 1775.62 191.76 1773.05 192.95C1770.51 194.13 1767.58 194.72 1764.26 194.72L1752.63 194.72ZM887.39 173.9L899.26 201.95L875.53 201.95L887.39 173.9Z" fill="#34495E" fill-opacity="1.000000" fill-rule="evenodd"/>
		<path id="中V档案馆" d="M438.62 290.88C441.92 293.13 445.18 297.42 445.65 301.25C454.14 307.1 461.73 290.88 439.54 290L438.62 290.88ZM586.17 305.65C585.62 300.59 581.52 294.48 578.01 291.1L579.03 290.22C602.38 295.28 594.44 311.95 586.17 305.65ZM618.71 312.17C616.55 315 612.48 319.84 609.85 322.43L608.39 321.77C608.5 319.04 608.97 314.2 609.19 310.49L566.47 310.49C567.03 314.53 566.36 318.03 565.23 320.39L574.05 324.24L600 324.24L604.32 319.84L613.48 326.72C612.92 327.49 611.35 328.29 609.52 328.62L609.52 349.69C609.41 350.38 605.09 352.05 602.38 352.05L601.03 352.05L601.03 347.68L573.5 347.68L573.5 360.17L603.3 360.17L607.72 355.44L617.24 362.65C616.55 363.44 614.86 364.46 612.92 364.79L612.92 390.37C612.81 390.95 608.61 392.85 605.79 392.85L604.43 392.85L604.43 386.55L573.5 386.55L573.5 391.28C573.5 392.41 569.99 394.42 566.22 394.42L564.76 394.42L564.76 321.08C564.42 321.63 564.09 322.1 563.62 322.43C561.46 324.35 557.51 324.46 556.04 321.63C554.91 319.04 556.48 316.46 558.97 315C559.33 314.67 559.67 314.2 559.89 313.76C559.2 313.98 558.2 314.09 556.82 314.2C554.21 318.82 550.04 326.61 546.05 330.87L544.26 330.87C545.83 326.25 547.41 318.6 548.1 313.19L531.67 313.19C527.93 323.12 523.51 333.24 518.3 340.58L516.59 339.79C521.6 327.38 526 305.98 527.82 290.54L541.52 293.6C541.07 294.84 540.27 295.5 537.34 295.28C536.09 299.79 534.63 304.74 532.8 309.91L547.41 309.91L552.2 304.96L560.58 312.63C562.05 309.8 562.96 305.76 562.38 302.37L564.31 302.37C564.98 303.94 565.45 305.54 565.89 307.1L608.28 307.1L613.48 301.93L623 310.93C622.11 311.84 620.98 312.06 618.71 312.17ZM147.19 309.58L142.21 314.78L112.52 314.78L112.52 295.5C115.45 295.06 116.36 293.82 116.7 292.22L103.11 290.76L103.11 314.78L73.18 314.78L63 310.38L63 362.1L64.46 362.1C68.31 362.1 72.29 359.84 72.29 358.93L72.29 351.28L103.11 351.28L103.11 394.78L104.91 394.78C108.42 394.78 112.52 392.41 112.52 391.17L112.52 351.28L143.34 351.28L143.34 360.64L144.92 360.64C148.1 360.64 152.75 358.71 152.86 357.91L152.86 319.84C155.13 319.4 156.92 318.38 157.62 317.48L147.19 309.58ZM314.4 320.86L299.68 320.86L299.68 334.94C322.89 344.74 315.53 359.51 307.95 353.54C306.82 348.45 303.06 342.04 299.68 337.31L299.68 391.94C299.68 392.96 296.06 395 292.76 395L290.83 395L290.83 343.39C286.29 352.85 280.4 361.41 273.04 368.75L271.46 367.38C280.4 354.56 286.07 337.53 289.36 320.86L274.06 320.86L273.15 317.59L290.83 317.59L290.83 290.99L303.86 292.36C303.53 294.04 302.72 295.17 299.68 295.61L299.68 317.59L303.2 317.59L308.18 310.49C308.18 310.49 313.96 315.44 317.36 319.04C317 320.28 315.98 320.86 314.4 320.86ZM362.46 334.83L367.11 329.53L377.18 337.31C376.4 338.22 374.8 339.21 372.53 339.68L372.53 390.7C372.31 391.39 367.88 393.43 364.84 393.43L363.59 393.43L363.59 386.99L314.07 386.99L313.04 383.61L363.59 383.61L363.59 361.88L319.38 361.88L318.36 358.6L363.59 358.6L363.59 337.97L316.89 337.97L315.87 334.83L339.66 334.83L339.66 292L352.58 293.35C352.47 294.95 351.34 296.07 348.51 296.51L348.51 334.83L362.46 334.83ZM483.03 305.87C481.67 308.92 479.52 312.53 477.94 314.67L479.29 315.44C483.72 313.65 489.95 310.27 493.46 307.44C495.62 307.32 496.86 307.1 497.78 306.31L488.48 297.53L483.39 302.59L410.51 302.59C410.29 301.03 409.82 299.32 409.16 297.53L407.22 297.53C407.69 302.37 404.51 307.1 401 308.67C398.29 309.91 396.46 312.06 397.37 314.89C398.51 317.92 402.46 318.27 405.31 316.79C408.25 315.11 410.63 311.51 410.74 305.87L483.03 305.87ZM355.54 325.59C358.36 318.93 361.66 308.01 364.03 298.33L377.07 302.59C376.62 303.94 375.27 304.85 372.89 304.74C368.35 312.63 362.68 320.97 357.23 326.61L355.54 325.59ZM322.67 323.78C322.34 316.13 318.02 306.56 314.18 300.23L315.65 299.57C339.66 313.54 330.83 331.56 322.67 323.78ZM215.37 386.73C214.8 386.73 214.4 386.49 214.16 386L189.34 323.78C187.33 318.49 185.51 314.64 183.9 312.23C183.33 311.35 182.16 310.66 180.39 310.18C178.61 309.7 177.2 309.46 176.15 309.46C175.83 309.46 175.66 308.94 175.66 307.9C175.66 306.93 175.83 306.29 176.15 305.97C178.09 306.05 180.26 306.17 182.69 306.33C185.11 306.49 187.57 306.57 190.07 306.57C191.04 306.57 192.77 306.51 195.27 306.39C197.78 306.27 201.04 306.13 205.08 305.97C205.24 306.29 205.3 306.95 205.26 307.96C205.22 308.96 205.08 309.46 204.84 309.46C203.3 309.46 201.73 309.78 200.12 310.42C198.5 311.07 197.69 312.07 197.69 313.43Q197.69 316.92 212.95 353.99C214.08 356.72 215.06 359.15 215.91 361.27C216.76 363.4 217.51 365.22 218.15 366.75C218.39 367.15 218.74 367.25 219.18 367.05C219.62 366.85 219.93 366.55 220.09 366.15L238.24 322.58Q240.54 316.8 240.54 314.15C240.54 312.95 240.02 312.01 238.97 311.33Q237.4 310.3 235.4 309.88Q233.4 309.46 232.07 309.46C231.75 309.46 231.59 308.94 231.59 307.9C231.59 306.93 231.75 306.29 232.07 305.97C235.86 306.13 238.83 306.27 240.97 306.39C243.11 306.51 244.46 306.57 245.02 306.57L257.25 305.97C257.41 306.61 257.49 307.21 257.49 307.78C257.49 308.9 257.33 309.46 257.01 309.46C253.37 309.46 250.95 310.58 249.74 312.83C248.86 314.52 247.91 316.38 246.9 318.43C245.89 320.47 244.86 322.74 243.81 325.23L219.6 382.75C218.55 385.4 217.14 386.73 215.37 386.73ZM495.4 361.3C496.97 361.3 498.11 360.75 498.44 359.51C494.48 355.91 488.04 350.82 488.04 350.82L482.37 358.02L451.66 358.02L451.66 350.82C454.59 350.38 455.61 349.25 455.83 347.68L444.05 346.55C448.03 345.2 451.77 343.61 455.17 341.93C465.35 344.41 474.09 347.21 480.54 350.27C489.72 353.54 499.46 342.7 463.22 336.51C467.4 333.02 470.91 328.62 473.87 323.45L491.99 323.45C493.57 323.45 494.59 322.9 494.82 321.63C491.08 318.03 484.74 313.29 484.74 313.29L479.29 320.06L439.54 320.06C441.56 317.48 443.38 315.11 444.85 313.19C448.14 313.65 449.28 312.85 449.83 311.73L437.02 306.56C435.33 309.69 432.04 314.78 428.3 320.06L400.89 320.06L401.8 323.45L425.93 323.45C422.52 327.96 419.01 332.47 416.52 335.27C426.84 336.4 436.47 337.97 445.18 339.79C433.87 345.43 418.34 348.7 398.51 351.17L398.95 353.07C416.96 352.05 431.13 350.27 442.25 346.99L442.25 358.02L396.02 358.02L396.9 361.3L435.11 361.3C425.59 372.69 410.63 383.5 393.86 390.48L394.77 392.19C413.7 386.88 430.46 378.44 442.25 367.51L442.25 394.56L443.94 394.56C447.56 394.56 451.66 392.74 451.66 391.83L451.66 361.88C460.73 376.18 475.67 386.55 492.91 392.05C493.93 387.57 496.86 384.51 500.71 383.61L500.82 382.37C483.94 379.45 465.13 371.78 454.48 361.3L495.4 361.3ZM72.29 348.01L72.29 318.03L103.11 318.03L103.11 348.01L72.29 348.01ZM112.52 348.01L112.52 318.03L143.34 318.03L143.34 348.01L112.52 348.01ZM462.86 323.45C460.37 328.07 456.86 331.89 452.68 335.16C445.87 334.37 437.82 333.82 428.53 333.35C431.26 330.32 434.2 326.94 436.91 323.45L462.86 323.45ZM601.03 344.41L601.03 327.49L573.5 327.49L573.5 344.41L601.03 344.41ZM539.83 377.53C544.81 374.83 550.59 371.67 556.15 368.5L557.07 369.88C552.97 373.7 545.17 381.24 536.2 389.14C535.51 391.39 533.94 392.85 532.69 393.43L527.35 382.95C530.87 381.02 531.45 380.33 531.45 378.33L531.45 328.4L543.56 329.75C543.34 331.23 542.32 332.11 539.83 332.58L539.83 377.53ZM604.43 383.28L604.43 363.55L573.5 363.55L573.5 383.28L604.43 383.28Z" fill="#34495E" fill-opacity="1.000000" fill-rule="evenodd"/>
	</g>
</svg>
