<svg width="92.958008" height="17.425537" viewBox="0 0 92.958 17.4255" fill="none" xmlns="http://www.w3.org/2000/svg" xmlns:xlink="http://www.w3.org/1999/xlink">
	<desc>
			Created with Pixso.
	</desc>
	<defs/>
	<path id="中V档案馆" d="M63.82 1.86C63.74 1.23 63.21 0.51 62.67 0.14L62.82 0C66.44 0.14 65.21 2.83 63.82 1.86ZM86.95 2.59C86.86 1.75 86.19 0.74 85.61 0.18L85.78 0.03C89.59 0.87 88.3 3.64 86.95 2.59ZM92.25 3.67C91.9 4.14 91.24 4.95 90.81 5.38L90.57 5.26C90.59 4.82 90.66 4.01 90.7 3.39L83.73 3.39C83.82 4.07 83.71 4.65 83.53 5.04L84.97 5.68L89.2 5.68L89.91 4.95L91.4 6.09C91.31 6.22 91.05 6.35 90.75 6.4L90.75 9.9C90.74 10.01 90.04 10.29 89.59 10.29L89.37 10.29L89.37 9.57L84.88 9.57L84.88 11.64L89.74 11.64L90.46 10.85L92.02 12.05C91.9 12.18 91.63 12.35 91.31 12.41L91.31 16.65C91.29 16.75 90.61 17.06 90.15 17.06L89.92 17.06L89.92 16.02L84.88 16.02L84.88 16.81C84.88 16.99 84.3 17.32 83.69 17.32L83.45 17.32L83.45 5.15C83.4 5.24 83.34 5.32 83.27 5.38C82.91 5.7 82.27 5.71 82.03 5.24C81.85 4.82 82.1 4.38 82.51 4.14C82.57 4.09 82.62 4.01 82.66 3.94C82.54 3.98 82.38 3.99 82.15 4.01C81.73 4.78 81.05 6.07 80.4 6.78L80.11 6.78C80.36 6.01 80.62 4.74 80.73 3.84L78.05 3.84C77.44 5.49 76.72 7.17 75.87 8.39L75.59 8.26C76.41 6.2 77.13 2.65 77.43 0.09L79.66 0.59C79.59 0.8 79.46 0.91 78.98 0.87C78.78 1.62 78.53 2.44 78.24 3.3L80.62 3.3L81.4 2.48L82.77 3.75C83.01 3.28 83.16 2.61 83.06 2.05L83.38 2.05C83.49 2.31 83.56 2.57 83.64 2.83L90.55 2.83L91.4 1.97L92.95 3.47C92.81 3.62 92.62 3.66 92.25 3.67ZM12.92 4.11L13.73 3.24L15.43 4.55C15.32 4.7 15.03 4.87 14.66 4.95L14.66 11.27C14.64 11.4 13.88 11.72 13.36 11.72L13.1 11.72L13.1 10.16L8.07 10.16L8.07 16.78C8.07 16.99 7.41 17.38 6.83 17.38L6.54 17.38L6.54 10.16L1.51 10.16L1.51 11.44C1.51 11.59 0.86 11.96 0.23 11.96L0 11.96L0 3.38L1.66 4.11L6.54 4.11L6.54 0.12L8.76 0.36C8.7 0.63 8.55 0.83 8.07 0.91L8.07 4.11L12.92 4.11ZM42.2 5.12L39.8 5.12L39.8 7.45C43.59 9.08 42.39 11.53 41.15 10.54C40.97 9.69 40.35 8.63 39.8 7.85L39.8 16.91C39.8 17.08 39.21 17.42 38.67 17.42L38.36 17.42L38.36 8.86C37.62 10.43 36.66 11.85 35.46 13.07L35.2 12.84C36.66 10.71 37.58 7.88 38.12 5.12L35.62 5.12L35.47 4.57L38.36 4.57L38.36 0.16L40.49 0.39C40.43 0.66 40.3 0.85 39.8 0.93L39.8 4.57L40.37 4.57L41.19 3.39C41.19 3.39 42.13 4.22 42.69 4.82C42.63 5.02 42.46 5.12 42.2 5.12ZM50.05 7.43L50.8 6.55L52.45 7.85C52.32 8 52.06 8.16 51.69 8.24L51.69 16.71C51.65 16.82 50.93 17.16 50.43 17.16L50.23 17.16L50.23 16.09L42.15 16.09L41.98 15.53L50.23 15.53L50.23 11.92L43.02 11.92L42.85 11.38L50.23 11.38L50.23 7.96L42.61 7.96L42.44 7.43L46.32 7.43L46.32 0.33L48.43 0.55C48.42 0.81 48.23 1 47.77 1.08L47.77 7.43L50.05 7.43ZM69.09 4.09C69.34 3.73 69.7 3.13 69.92 2.63L58.12 2.63C58.1 3.56 57.71 4.16 57.24 4.44C56.77 4.69 56.13 4.63 55.94 4.13C55.79 3.66 56.09 3.3 56.54 3.1C57.11 2.83 57.62 2.05 57.55 1.25L57.87 1.25C57.97 1.54 58.05 1.82 58.08 2.09L69.98 2.09L70.81 1.25L72.33 2.7C72.17 2.83 71.97 2.87 71.62 2.89C71.05 3.36 70.03 3.92 69.31 4.22L69.09 4.09ZM48.92 5.9C49.38 4.8 49.92 2.98 50.3 1.37L52.43 2.09C52.36 2.31 52.13 2.46 51.75 2.44C51.01 3.75 50.08 5.14 49.19 6.07L48.92 5.9ZM43.55 5.6C43.5 4.33 42.79 2.74 42.17 1.69L42.41 1.58C46.32 3.9 44.89 6.89 43.55 5.6ZM25.31 16.02C25.34 16.04 25.39 16.06 25.44 16.06C25.49 16.06 25.54 16.05 25.59 16.04C25.83 15.97 26.02 15.75 26.17 15.36L30.34 5.27C30.52 4.84 30.7 4.44 30.87 4.08C31.05 3.72 31.21 3.4 31.37 3.1C31.41 3.02 31.46 2.95 31.52 2.89C31.75 2.64 32.12 2.51 32.62 2.51C32.67 2.5 32.7 2.4 32.7 2.21C32.7 2.11 32.69 2.01 32.66 1.9L30.55 2C30.46 2 30.22 1.99 29.86 1.97C29.49 1.95 28.97 1.93 28.32 1.9C28.26 1.95 28.24 2.07 28.24 2.23C28.24 2.4 28.26 2.49 28.31 2.51C28.46 2.51 28.66 2.53 28.89 2.58C29.12 2.63 29.33 2.72 29.51 2.84C29.61 2.9 29.68 2.98 29.72 3.07C29.76 3.15 29.78 3.24 29.78 3.33C29.78 3.64 29.65 4.14 29.38 4.81L26.26 12.45C26.24 12.47 26.23 12.49 26.22 12.51C26.19 12.55 26.15 12.58 26.1 12.61C26.06 12.63 26.02 12.63 25.99 12.62C25.97 12.61 25.94 12.59 25.92 12.55C25.81 12.29 25.68 11.97 25.53 11.59C25.39 11.22 25.22 10.8 25.02 10.32C23.27 5.98 22.39 3.61 22.39 3.21C22.39 3.13 22.41 3.06 22.43 3C22.49 2.86 22.62 2.75 22.81 2.68C23.09 2.57 23.36 2.51 23.63 2.51C23.66 2.5 23.69 2.41 23.7 2.25C23.7 2.07 23.69 1.95 23.67 1.9C22.97 1.93 22.41 1.95 21.97 1.97C21.54 1.99 21.25 2 21.08 2C20.65 2 20.22 1.99 19.8 1.96C19.39 1.93 19.01 1.91 18.68 1.9C18.62 1.95 18.6 2.07 18.6 2.23C18.6 2.4 18.62 2.49 18.67 2.51C18.85 2.51 19.1 2.55 19.41 2.64C19.72 2.72 19.92 2.84 20.01 3C20.29 3.42 20.61 4.09 20.96 5.02L25.23 15.93C25.25 15.97 25.28 16 25.31 16.02ZM72.43 11.53C72.38 11.74 72.19 11.83 71.94 11.83L65.26 11.83C67 13.57 70.07 14.84 72.82 15.33L72.8 15.53C72.17 15.68 71.7 16.19 71.53 16.93C68.72 16.02 66.28 14.3 64.8 11.92L64.8 16.9C64.8 17.05 64.13 17.35 63.54 17.35L63.27 17.35L63.27 12.86C61.34 14.67 58.61 16.07 55.52 16.95L55.37 16.67C58.1 15.51 60.55 13.72 62.1 11.83L55.87 11.83L55.72 11.28L63.27 11.28L63.27 9.45C61.45 10 59.14 10.29 56.2 10.46L56.13 10.15C59.36 9.74 61.9 9.19 63.74 8.26C62.32 7.96 60.75 7.7 59.07 7.51C59.47 7.04 60.04 6.3 60.6 5.54L56.66 5.54L56.51 4.98L60.99 4.98C61.6 4.11 62.14 3.26 62.41 2.74L64.5 3.6C64.41 3.79 64.23 3.92 63.69 3.84C63.45 4.16 63.15 4.55 62.82 4.98L69.31 4.98L70.2 3.86C70.2 3.86 71.23 4.65 71.84 5.24C71.8 5.46 71.64 5.54 71.38 5.54L68.42 5.54C67.94 6.4 67.37 7.13 66.68 7.71C72.6 8.74 71.01 10.54 69.51 10C68.46 9.49 67.03 9.03 65.37 8.61C64.82 8.89 64.21 9.16 63.56 9.38L65.48 9.57C65.44 9.83 65.28 10.01 64.8 10.09L64.8 11.28L69.81 11.28L70.74 10.09C70.74 10.09 71.79 10.93 72.43 11.53ZM1.51 4.65L1.51 9.62L6.54 9.62L6.54 4.65L1.51 4.65ZM8.07 4.65L8.07 9.62L13.1 9.62L13.1 4.65L8.07 4.65ZM64.97 7.49C65.65 6.95 66.22 6.31 66.63 5.54L62.39 5.54C61.95 6.12 61.47 6.69 61.03 7.19C62.54 7.27 63.86 7.36 64.97 7.49ZM89.37 9.03L89.37 6.22L84.88 6.22L84.88 9.03L89.37 9.03ZM79.39 14.52C80.2 14.08 81.14 13.55 82.05 13.02L82.2 13.25C81.53 13.89 80.26 15.14 78.79 16.45C78.68 16.82 78.42 17.06 78.22 17.16L77.35 15.42C77.92 15.1 78.02 14.99 78.02 14.65L78.02 6.37L79.99 6.59C79.96 6.84 79.79 6.99 79.39 7.06L79.39 14.52ZM89.92 15.48L89.92 12.2L84.88 12.2L84.88 15.48L89.92 15.48Z" fill="#C6DCF2" fill-opacity="1.000000" fill-rule="evenodd"/>
</svg>
