<svg width="1666" height="523" viewBox="0 0 1666 523" fill="none" xmlns="http://www.w3.org/2000/svg">
	<path d="M1280.5 385.42L1291.24 410.78L1302.67 410.78L1263.56 322L1224.43 410.78L1235.88 410.78L1246.56 385.42L1280.5 385.42ZM88.81 368.5Q88.81 359 92.85 351.77Q93.02 351.48 93.19 351.19Q96.18 346.14 100.41 342.58Q102.42 340.89 104.7 339.54C109.44 336.71 114.58 335.29 120.1 335.29Q126.12 335.29 131.12 336.89Q136.11 338.45 140.2 341.28C142.94 343.17 145.27 345.36 147.19 347.85L147.19 334.32Q142.29 329.95 136.56 327.68Q136.1 327.5 135.64 327.33Q129.38 325.03 120.1 325.03Q112.5 325.03 105.76 327.44L105.76 327.44Q104.71 327.81 103.68 328.25Q99.65 329.92 96.14 332.34L96.14 332.34Q92.99 334.52 90.25 337.3Q89.29 338.27 88.39 339.31Q83.94 344.47 81.23 351.13Q78 359.09 78 368.5Q78 377.93 81.23 385.92C83.4 391.23 86.41 395.84 90.25 399.75C94.11 403.64 98.58 406.66 103.68 408.8C108.77 410.93 114.24 411.99 120.1 411.99Q129.38 411.99 135.64 409.69Q136.18 409.49 136.72 409.27Q142.36 406.98 147.19 402.7L147.19 389.17C145.27 391.66 142.94 393.85 140.2 395.74Q136.11 398.57 131.12 400.16C127.79 401.21 124.12 401.73 120.1 401.73Q115.89 401.73 111.98 400.64Q108.2 399.58 104.7 397.51Q102.53 396.21 100.61 394.61L100.61 394.61Q96.25 390.97 93.19 385.77Q92.84 385.18 92.52 384.57L92.52 384.57Q88.81 377.51 88.81 368.5ZM785.55 385.18L777.38 390.73C779.22 394.42 781.6 397.9 784.52 401.17C787.46 404.43 790.87 407.05 794.75 409.04C798.65 411 802.89 411.99 807.47 411.99Q811.2 411.99 814.69 411.07L814.69 411.07Q815.93 410.75 817.14 410.31C820.23 409.17 823 407.56 825.45 405.47C827.9 403.37 829.82 400.83 831.21 397.86C832.62 394.88 833.33 391.53 833.33 387.84Q833.33 382.03 831.27 377.87Q829.39 374.01 826.48 371.19L826.43 371.13Q826.23 370.95 826.04 370.77C823.92 368.78 821.62 367.15 819.13 365.87C816.65 364.57 814.28 363.52 812.02 362.72Q804.68 360.18 800.42 357.59C797.58 355.86 795.55 354.01 794.34 352.04C793.14 350.06 792.54 347.89 792.54 345.56C792.54 342.82 793.58 340.36 795.66 338.15C797.75 335.93 801.08 334.82 805.65 334.82C808.94 334.82 811.73 335.47 814.02 336.77C816.31 338.05 818.25 339.69 819.84 341.69C821.45 343.7 822.78 345.75 823.84 347.85L832.62 342.78C831.25 339.8 829.36 336.95 826.95 334.26Q826.6 333.88 826.25 333.5L826.23 333.49Q822.84 329.97 818.22 327.63C814.82 325.9 810.83 325.03 806.27 325.03C801.52 325.03 797.3 325.98 793.6 327.86C789.92 329.75 787.03 332.35 784.93 335.65C782.86 338.95 781.82 342.69 781.82 346.88C781.82 350.75 782.56 354.02 784.05 356.67C785.54 359.33 787.44 361.56 789.75 363.36C792.08 365.17 794.53 366.67 797.1 367.85C799.66 369.01 802 369.95 804.09 370.68Q808.91 372.36 813.17 374.48C816.03 375.9 818.34 377.73 820.1 380Q822.75 383.36 822.75 389.05C822.75 392.9 821.38 396.08 818.64 398.57C815.91 401.07 812.31 402.32 807.82 402.32C804.45 402.32 801.45 401.6 798.8 400.16C796.16 398.71 793.77 396.69 791.63 394.12C789.5 391.54 787.47 388.57 785.55 385.18ZM497.24 391.7L469.56 326.24L458.1 326.24L497.24 415L536.35 326.24L524.92 326.24L497.24 391.7ZM1263.56 345.32L1276.44 375.75L1250.68 375.75L1263.56 345.32ZM283.16 353.72L283.16 396.19L240.11 350.85L240.11 410.78L247.01 410.78L247.01 368.31L290.07 413.62L290.07 353.72L283.16 353.72ZM693.79 393.66L701.05 410.78L708.76 410.78L682.36 350.85L655.95 410.78L663.68 410.78L670.89 393.66L693.79 393.66ZM933.89 353.72L933.89 396.19L890.83 350.85L890.83 410.78L897.73 410.78L897.73 368.31L940.79 413.62L940.79 353.72L933.89 353.72ZM349.85 393.5L344.33 397.24C345.58 399.74 347.18 402.09 349.15 404.29C351.14 406.49 353.44 408.26 356.05 409.6C358.69 410.93 361.55 411.6 364.64 411.6C366.92 411.6 369.09 411.22 371.17 410.46C373.26 409.69 375.13 408.6 376.78 407.2C378.43 405.78 379.73 404.06 380.67 402.06C381.62 400.04 382.1 397.79 382.1 395.29C382.1 392.68 381.63 390.44 380.71 388.57C379.79 386.7 378.62 385.1 377.18 383.77C375.75 382.43 374.19 381.33 372.52 380.47C370.84 379.59 369.24 378.88 367.72 378.34C364.41 377.2 361.8 376.04 359.88 374.87C357.97 373.71 356.6 372.46 355.78 371.13C354.97 369.79 354.57 368.33 354.57 366.75C354.57 364.91 355.27 363.24 356.67 361.76C358.08 360.26 360.33 359.51 363.41 359.51C365.63 359.51 367.52 359.95 369.06 360.82C370.61 361.68 371.92 362.79 372.99 364.15C374.08 365.5 374.97 366.89 375.69 368.31L381.62 364.88Q380.23 361.86 377.79 359.13C376.16 357.31 374.2 355.82 371.9 354.65C369.6 353.48 366.91 352.9 363.83 352.9C360.63 352.9 357.78 353.54 355.28 354.81C352.8 356.08 350.85 357.84 349.43 360.07C348.03 362.29 347.33 364.82 347.33 367.65C347.33 370.26 347.83 372.47 348.84 374.26C349.84 376.05 351.12 377.55 352.68 378.77C354.26 380 355.91 381 357.64 381.8C359.37 382.58 360.95 383.22 362.36 383.71C364.53 384.47 366.57 385.32 368.49 386.28C370.42 387.23 371.98 388.47 373.17 390C374.36 391.51 374.96 393.55 374.96 396.11C374.96 398.71 374.03 400.85 372.18 402.54C370.34 404.22 367.91 405.07 364.88 405.07C362.61 405.07 360.58 404.58 358.79 403.61C357.01 402.63 355.39 401.27 353.95 399.53C352.51 397.8 351.14 395.79 349.85 393.5ZM540.2 382.24Q540.2 388.33 542.26 393.63L542.27 393.65Q542.31 393.74 542.34 393.82C543.78 397.4 545.8 400.52 548.39 403.16C550.99 405.8 554.05 407.87 557.57 409.37C561.1 410.85 564.92 411.6 569.03 411.6C573.2 411.6 577.03 410.85 580.52 409.37C584.02 407.87 587.07 405.8 589.66 403.16C592.27 400.52 594.28 397.4 595.71 393.82C597.15 390.24 597.87 386.38 597.87 382.24C597.87 378.06 597.15 374.19 595.71 370.63C594.28 367.06 592.27 363.97 589.66 361.34C587.07 358.7 584.02 356.64 580.52 355.15C577.03 353.65 573.2 352.9 569.03 352.9C564.92 352.9 561.1 353.65 557.57 355.15Q553.93 356.69 550.94 359.05L550.94 359.05Q549.6 360.11 548.39 361.34C545.8 363.97 543.78 367.06 542.34 370.63Q540.2 375.97 540.2 382.24ZM611.67 382.24C611.67 377.79 612.66 373.9 614.63 370.55C616.61 367.21 619.2 364.59 622.4 362.69C625.6 360.78 629.07 359.83 632.79 359.83C635.5 359.83 637.98 360.18 640.23 360.9C642.48 361.6 644.52 362.59 646.36 363.87C648.21 365.14 649.78 366.62 651.08 368.31L651.08 359.17C648.7 357.05 646.1 355.47 643.28 354.45C640.47 353.42 636.97 352.9 632.79 352.9C628.84 352.9 625.15 353.62 621.71 355.07C618.27 356.5 615.25 358.54 612.64 361.18C610.05 363.81 608.02 366.92 606.56 370.51C605.1 374.1 604.37 378 604.37 382.24C604.37 386.48 605.1 390.4 606.56 394C608.02 397.58 610.05 400.69 612.64 403.34C615.25 405.96 618.27 408 621.71 409.45C625.15 410.88 628.84 411.6 632.79 411.6C636.97 411.6 640.47 411.08 643.28 410.04C646.1 409.01 648.7 407.43 651.08 405.33L651.08 396.19C649.78 397.87 648.21 399.35 646.36 400.63C644.52 401.9 642.48 402.9 640.23 403.61C637.98 404.32 635.5 404.67 632.79 404.67C629.07 404.67 625.6 403.72 622.4 401.82C619.2 399.91 616.61 397.27 614.63 393.9C612.66 390.53 611.67 386.64 611.67 382.24ZM1096.43 393.5L1090.92 397.24C1092.16 399.74 1093.77 402.09 1095.74 404.29C1097.72 406.49 1100.02 408.26 1102.64 409.6C1105.27 410.93 1108.13 411.6 1111.23 411.6C1113.5 411.6 1115.67 411.22 1117.75 410.46C1119.84 409.69 1121.71 408.6 1123.36 407.2C1125.02 405.78 1126.31 404.06 1127.25 402.06C1128.19 400.04 1128.68 397.79 1128.68 395.29C1128.68 392.68 1128.22 390.44 1127.29 388.57C1126.38 386.7 1125.19 385.1 1123.76 383.77C1122.32 382.43 1120.78 381.33 1119.1 380.47C1117.42 379.59 1115.81 378.88 1114.3 378.34C1110.99 377.2 1108.38 376.04 1106.47 374.87C1104.55 373.71 1103.18 372.46 1102.36 371.13C1101.55 369.79 1101.15 368.33 1101.15 366.75C1101.15 364.91 1101.85 363.24 1103.25 361.76C1104.67 360.26 1106.92 359.51 1110 359.51C1112.22 359.51 1114.1 359.95 1115.65 360.82C1117.19 361.68 1118.5 362.79 1119.57 364.15C1120.66 365.5 1121.56 366.89 1122.27 368.31L1128.19 364.88C1127.28 362.87 1126 360.95 1124.38 359.13C1122.75 357.31 1120.79 355.82 1118.48 354.65Q1115.03 352.9 1110.41 352.9C1107.21 352.9 1104.36 353.54 1101.86 354.81C1099.38 356.08 1097.43 357.84 1096.01 360.07C1094.61 362.29 1093.91 364.82 1093.91 367.65Q1093.91 371.57 1095.42 374.26C1096.42 376.05 1097.71 377.55 1099.27 378.77C1100.84 380 1102.49 381 1104.22 381.8C1105.96 382.58 1107.53 383.22 1108.93 383.71C1111.11 384.47 1113.16 385.32 1115.06 386.28C1117 387.23 1118.56 388.47 1119.75 390C1120.93 391.51 1121.54 393.55 1121.54 396.11Q1121.54 398.29 1120.67 400.04Q1119.99 401.42 1118.76 402.54C1116.92 404.22 1114.49 405.07 1111.46 405.07C1109.18 405.07 1107.16 404.58 1105.38 403.61C1103.59 402.63 1101.98 401.27 1100.54 399.53C1099.09 397.8 1097.73 395.79 1096.43 393.5ZM1160.85 393.5L1155.34 397.24C1156.57 399.74 1158.18 402.09 1160.16 404.29Q1161.81 406.14 1163.78 407.58L1163.78 407.58Q1165.32 408.72 1167.06 409.6C1169.68 410.93 1172.55 411.6 1175.65 411.6C1177.92 411.6 1180.09 411.22 1182.17 410.46C1184.26 409.69 1186.13 408.6 1187.78 407.2C1189.43 405.78 1190.73 404.06 1191.67 402.06C1192.62 400.04 1193.1 397.79 1193.1 395.29C1193.1 392.68 1192.64 390.44 1191.71 388.57Q1190.43 385.96 1188.48 384.05L1188.48 384.05Q1188.32 383.91 1188.18 383.77C1186.75 382.43 1185.19 381.33 1183.52 380.47C1181.84 379.59 1180.24 378.88 1178.72 378.34C1175.41 377.2 1172.8 376.04 1170.89 374.87C1168.97 373.71 1167.6 372.46 1166.78 371.13C1165.97 369.79 1165.56 368.33 1165.56 366.75C1165.56 364.91 1166.27 363.24 1167.67 361.76C1169.09 360.26 1171.32 359.51 1174.42 359.51C1176.64 359.51 1178.52 359.95 1180.06 360.82C1181.62 361.68 1182.92 362.79 1184 364.15C1185.07 365.5 1185.98 366.89 1186.68 368.31L1192.62 364.88C1191.69 362.87 1190.42 360.95 1188.79 359.13C1187.17 357.31 1185.21 355.82 1182.9 354.65C1180.6 353.48 1177.91 352.9 1174.82 352.9C1171.63 352.9 1168.78 353.54 1166.28 354.81C1163.8 356.08 1161.85 357.84 1160.43 360.07C1159.03 362.29 1158.32 364.82 1158.32 367.65Q1158.32 371.57 1159.84 374.26C1160.84 376.05 1162.13 377.55 1163.68 378.77C1165.26 380 1166.91 381 1168.64 381.8C1170.38 382.58 1171.94 383.22 1173.36 383.71C1175.53 384.47 1177.57 385.32 1179.49 386.28C1181.42 387.23 1182.98 388.47 1184.17 390C1185.36 391.51 1185.96 393.55 1185.96 396.11C1185.96 398.71 1185.03 400.85 1183.18 402.54C1181.34 404.22 1178.91 405.07 1175.88 405.07C1173.61 405.07 1171.57 404.58 1169.79 403.61C1168.01 402.63 1166.4 401.27 1164.96 399.53C1163.51 397.8 1162.15 395.79 1160.85 393.5ZM1359.31 382.24C1359.31 377.79 1360.3 373.9 1362.27 370.55C1364.25 367.21 1366.84 364.59 1370.04 362.69C1373.24 360.78 1376.71 359.83 1380.43 359.83C1383.14 359.83 1385.62 360.18 1387.87 360.9C1390.12 361.6 1392.16 362.59 1394 363.87C1395.85 365.14 1397.42 366.62 1398.72 368.31L1398.72 359.17Q1395.41 356.22 1391.55 354.69L1391.55 354.69Q1391.24 354.57 1390.93 354.45C1388.11 353.42 1384.61 352.9 1380.43 352.9C1376.48 352.9 1372.78 353.62 1369.35 355.07C1365.91 356.5 1362.89 358.54 1360.28 361.18C1357.69 363.81 1355.66 366.92 1354.19 370.51Q1352.01 375.89 1352.01 382.24C1352.01 386.48 1352.74 390.4 1354.19 394C1355.66 397.58 1357.69 400.69 1360.28 403.34C1362.89 405.96 1365.91 408 1369.35 409.45C1372.78 410.88 1376.48 411.6 1380.43 411.6C1384.61 411.6 1388.11 411.08 1390.93 410.04C1393.74 409.01 1396.34 407.43 1398.72 405.33L1398.72 396.19C1397.42 397.87 1395.85 399.35 1394 400.63C1392.16 401.9 1390.12 402.9 1387.87 403.61Q1384.5 404.67 1380.43 404.67C1376.71 404.67 1373.24 403.72 1370.04 401.82C1366.84 399.91 1364.25 397.27 1362.27 393.9C1360.3 390.53 1359.31 386.64 1359.31 382.24ZM162.12 353.72L162.12 410.78L169.02 410.78L169.02 383.05L200.3 383.05L200.3 410.78L207.2 410.78L207.2 353.72L200.3 353.72L200.3 376.55L169.02 376.55L169.02 353.72L162.12 353.72ZM220.2 353.72L220.2 410.78L227.11 410.78L227.11 353.72L220.2 353.72ZM303.06 353.72L303.06 410.78L335.55 410.78L335.55 404.25L309.97 404.25L309.97 383.05L333.92 383.05L333.92 376.55L309.97 376.55L309.97 360.22L335.55 360.22L335.55 353.72L303.06 353.72ZM392.26 353.72L392.26 410.78L424.75 410.78L424.75 404.25L399.16 404.25L399.16 383.05L423.12 383.05L423.12 376.55L399.16 376.55L399.16 360.22L424.75 360.22L424.75 353.72L392.26 353.72ZM715.67 353.72L715.67 410.78L744.9 410.78L744.9 404.25L722.57 404.25L722.57 353.72L715.67 353.72ZM876.19 353.72L861.5 380.13L846.88 353.72L839.15 353.72L858.09 386.24L858.09 410.78L864.99 410.78L864.99 386.16L883.91 353.72L876.19 353.72ZM948.09 360.22L962.71 360.22L962.71 410.78L969.61 410.78L969.61 360.22L984.25 360.22L984.25 353.72L948.09 353.72L948.09 360.22ZM991.56 353.72L991.56 410.78L998.46 410.78L998.46 383.05L1029.74 383.05L1029.74 410.78L1036.65 410.78L1036.65 353.72L1029.74 353.72L1029.74 376.55L998.46 376.55L998.46 353.72L991.56 353.72ZM1049.65 353.72L1049.65 410.78L1082.13 410.78L1082.13 404.25L1056.55 404.25L1056.55 383.05L1080.51 383.05L1080.51 376.55L1056.55 376.55L1056.55 360.22L1082.13 360.22L1082.13 353.72L1049.65 353.72ZM1138.85 353.72L1138.85 410.78L1145.75 410.78L1145.75 353.72L1138.85 353.72ZM1309.77 353.72L1309.77 410.78L1316.68 410.78L1316.68 387.95L1323.6 387.95L1339.42 410.78L1347.95 410.78L1331 387.3Q1333.14 386.79 1335.06 385.88Q1337.91 384.52 1339.99 382.4Q1341.09 381.27 1341.98 379.93C1343.69 377.34 1344.54 374.31 1344.54 370.83C1344.54 367.3 1343.69 364.27 1341.98 361.72Q1341.11 360.4 1340.02 359.3Q1337.93 357.17 1335.06 355.81C1332.17 354.41 1328.88 353.72 1325.2 353.72L1309.77 353.72ZM1410.91 353.72L1410.91 410.78L1417.81 410.78L1417.81 383.05L1449.09 383.05L1449.09 410.78L1455.99 410.78L1455.99 353.72L1449.09 353.72L1449.09 376.55L1417.81 376.55L1417.81 353.72L1410.91 353.72ZM1469 353.72L1469 410.78L1475.9 410.78L1475.9 353.72L1469 353.72ZM1509.21 397.9L1490.52 353.72L1482.79 353.72L1509.21 413.62L1535.6 353.72L1527.89 353.72L1509.21 397.9ZM1542.51 353.72L1542.51 410.78L1575 410.78L1575 404.25L1549.42 404.25L1549.42 383.05L1573.37 383.05L1573.37 376.55L1549.42 376.55L1549.42 360.22L1575 360.22L1575 353.72L1542.51 353.72ZM547.5 382.24C547.5 377.95 548.43 374.12 550.29 370.75C552.17 367.38 554.73 364.72 557.99 362.77C561.24 360.81 564.92 359.83 569.03 359.83C573.2 359.83 576.89 360.81 580.12 362.77C583.35 364.72 585.89 367.38 587.76 370.75C589.62 374.12 590.55 377.95 590.55 382.24C590.55 386.54 589.62 390.37 587.76 393.74C585.89 397.11 583.35 399.78 580.12 401.74C576.89 403.69 573.2 404.67 569.03 404.67C564.92 404.67 561.24 403.69 557.99 401.74C554.73 399.78 552.17 397.11 550.29 393.74C548.43 390.37 547.5 386.54 547.5 382.24ZM1316.68 381.84L1316.68 359.83L1325.2 359.83C1327.64 359.83 1329.79 360.26 1331.65 361.14C1333.53 362 1334.99 363.25 1336.05 364.88C1337.11 366.51 1337.64 368.5 1337.64 370.83C1337.64 373.17 1337.11 375.15 1336.05 376.78C1334.99 378.42 1333.53 379.67 1331.65 380.55C1329.79 381.41 1327.64 381.84 1325.2 381.84L1316.68 381.84ZM682.36 366.59L691.06 387.13L673.67 387.13L682.36 366.59Z" fill="#FFC1B8" fill-opacity="1.000000" fill-rule="evenodd"/>
	<path d="M582.41 122.18C586.83 125.21 591.22 130.97 591.85 136.1C603.25 143.97 613.43 122.18 583.64 121L582.41 122.18ZM780.55 142.01C779.8 135.22 774.3 127.02 769.59 122.47L770.96 121.29C802.32 128.09 791.65 150.47 780.55 142.01ZM824.24 150.77C821.34 154.57 815.88 161.08 812.35 164.55L810.38 163.66C810.53 160 811.16 153.5 811.46 148.52L754.09 148.52C754.84 153.95 753.94 158.64 752.42 161.81L764.27 166.99L799.12 166.99L804.92 161.08L817.22 170.31C816.47 171.34 814.35 172.42 811.9 172.86L811.9 201.16C811.75 202.08 805.96 204.33 802.32 204.33L800.5 204.33L800.5 198.46L763.53 198.46L763.53 215.23L803.54 215.23L809.49 208.88L822.27 218.55C821.34 219.63 819.07 220.99 816.47 221.44L816.47 255.79C816.32 256.57 810.68 259.11 806.89 259.11L805.07 259.11L805.07 250.65L763.53 250.65L763.53 257.01C763.53 258.52 758.81 261.22 753.76 261.22L751.79 261.22L751.79 162.74C751.34 163.48 750.9 164.1 750.27 164.55C747.37 167.13 742.06 167.28 740.09 163.48C738.56 160 740.68 156.53 744.02 154.57C744.51 154.13 744.95 153.5 745.25 152.91C744.32 153.21 742.98 153.35 741.13 153.5C737.63 159.71 732.02 170.16 726.67 175.89L724.26 175.89C726.38 169.68 728.49 159.41 729.42 152.14L707.35 152.14C702.34 165.47 696.39 179.07 689.41 188.93L687.11 187.86C693.83 171.2 699.74 142.46 702.19 121.73L720.58 125.83C719.99 127.5 718.91 128.38 714.97 128.09C713.3 134.15 711.33 140.8 708.88 147.74L728.49 147.74L734.92 141.09L746.18 151.4C748.15 147.59 749.37 142.16 748.59 137.62L751.2 137.62C752.09 139.72 752.72 141.87 753.31 143.97L810.23 143.97L817.22 137.03L830 149.11C828.81 150.33 827.28 150.62 824.24 150.77ZM191.05 147.3L184.36 154.28L144.5 154.28L144.5 128.38C148.44 127.79 149.66 126.13 150.11 123.99L131.87 122.03L131.87 154.28L91.67 154.28L78 148.37L78 217.82L79.96 217.82C85.13 217.82 90.48 214.79 90.48 213.57L90.48 203.3L131.87 203.3L131.87 261.7L134.28 261.7C139 261.7 144.5 258.52 144.5 256.86L144.5 203.3L185.89 203.3L185.89 215.86L188 215.86C192.28 215.86 198.52 213.27 198.67 212.2L198.67 161.08C201.71 160.48 204.13 159.12 205.06 157.9L191.05 147.3ZM415.6 162.44L395.83 162.44L395.83 181.36C427 194.51 417.12 214.34 406.94 206.33C405.42 199.49 400.36 190.89 395.83 184.53L395.83 257.89C395.83 259.26 390.96 262 386.54 262L383.94 262L383.94 192.7C377.85 205.4 369.94 216.89 360.05 226.75L357.94 224.91C369.94 207.69 377.55 184.83 381.97 162.44L361.43 162.44L360.2 158.05L383.94 158.05L383.94 122.33L401.44 124.17C401 126.43 399.92 127.94 395.83 128.53L395.83 158.05L400.55 158.05L407.24 148.52C407.24 148.52 415 155.16 419.57 160C419.09 161.67 417.71 162.44 415.6 162.44ZM480.13 181.21L486.37 174.08L499.89 184.53C498.85 185.75 496.7 187.08 493.65 187.71L493.65 256.23C493.36 257.16 487.41 259.89 483.33 259.89L481.65 259.89L481.65 251.25L415.15 251.25L413.78 246.7L481.65 246.7L481.65 217.52L422.28 217.52L420.91 213.12L481.65 213.12L481.65 185.42L418.94 185.42L417.57 181.21L449.52 181.21L449.52 123.69L466.87 125.5C466.72 127.64 465.19 129.16 461.41 129.75L461.41 181.21L480.13 181.21ZM642.04 142.31C640.22 146.41 637.32 151.25 635.2 154.13L637.03 155.16C642.97 152.76 651.33 148.22 656.05 144.42C658.95 144.27 660.62 143.97 661.84 142.9L649.36 131.12L642.52 137.91L544.66 137.91C544.37 135.81 543.74 133.52 542.84 131.12L540.24 131.12C540.87 137.62 536.6 143.97 531.88 146.08C528.24 147.74 525.79 150.62 527.02 154.43C528.54 158.49 533.85 158.97 537.68 156.97C541.62 154.72 544.81 149.88 544.96 142.31L642.04 142.31ZM470.84 168.8C474.63 159.86 479.05 145.19 482.25 132.19L499.75 137.91C499.15 139.72 497.33 140.94 494.14 140.8C488.04 151.4 480.43 162.59 473.11 170.16L470.84 168.8ZM426.7 166.36C426.26 156.09 420.46 143.23 415.3 134.74L417.27 133.85C449.52 152.62 437.66 176.81 426.7 166.36ZM282.61 250.89C281.85 250.89 281.31 250.57 280.98 249.92L247.66 166.37C244.95 159.26 242.51 154.08 240.35 150.85C239.59 149.67 238.02 148.75 235.63 148.1C233.25 147.46 231.35 147.14 229.94 147.14C229.51 147.14 229.29 146.43 229.29 145.03C229.29 143.74 229.51 142.88 229.94 142.45C232.55 142.56 235.47 142.72 238.72 142.93C241.97 143.15 245.28 143.26 248.64 143.26C249.94 143.26 252.27 143.17 255.63 143.01C258.99 142.85 263.37 142.66 268.79 142.45C269.01 142.88 269.09 143.77 269.04 145.12C268.98 146.46 268.79 147.14 268.47 147.14C266.41 147.14 264.29 147.57 262.13 148.43C259.96 149.29 258.88 150.64 258.88 152.47Q258.88 157.16 279.36 206.93C280.87 210.6 282.2 213.85 283.34 216.71C284.48 219.56 285.48 222.02 286.35 224.06C286.67 224.6 287.13 224.74 287.73 224.47C288.32 224.2 288.73 223.79 288.95 223.25L313.33 164.75C315.39 159.58 316.42 155.81 316.42 153.44C316.42 151.82 315.71 150.56 314.3 149.64C312.9 148.72 311.3 148.08 309.51 147.7C307.72 147.32 306.23 147.14 305.04 147.14C304.6 147.14 304.39 146.43 304.39 145.03C304.39 143.74 304.6 142.88 305.04 142.45C310.13 142.66 314.11 142.85 316.99 143.01C319.86 143.17 321.67 143.26 322.43 143.26L338.85 142.45C339.06 143.31 339.17 144.12 339.17 144.87C339.17 146.38 338.96 147.14 338.52 147.14C333.65 147.14 330.4 148.64 328.77 151.66C327.58 153.92 326.31 156.43 324.95 159.17C323.6 161.92 322.21 164.97 320.81 168.31L288.3 245.56C286.89 249.11 284.99 250.89 282.61 250.89ZM658.65 216.74C660.77 216.74 662.29 216.01 662.73 214.34C657.42 209.5 648.77 202.67 648.77 202.67L641.15 212.35L599.91 212.35L599.91 202.67C603.85 202.08 605.22 200.56 605.52 198.46L589.69 196.94C595.04 195.13 600.06 192.99 604.63 190.74C618.3 194.06 630.04 197.83 638.7 201.93C651.03 206.33 664.11 191.77 615.44 183.46C621.05 178.77 625.77 172.86 629.74 165.91L654.08 165.91C656.2 165.91 657.57 165.18 657.87 163.48C652.85 158.64 644.34 152.28 644.34 152.28L637.03 161.37L583.64 161.37C586.35 157.9 588.8 154.72 590.77 152.14C595.19 152.76 596.71 151.69 597.46 150.18L580.26 143.23C577.99 147.44 573.57 154.28 568.55 161.37L531.73 161.37L532.96 165.91L565.36 165.91C560.79 171.97 556.07 178.03 552.73 181.8C566.58 183.31 579.51 185.42 591.22 187.86C576.02 195.43 555.18 199.83 528.54 203.15L529.13 205.7C553.32 204.33 572.34 201.93 587.28 197.54L587.28 212.35L525.2 212.35L526.39 216.74L577.69 216.74C564.91 232.04 544.81 246.55 522.3 255.94L523.52 258.23C548.94 251.1 571.45 239.76 587.28 225.09L587.28 261.4L589.54 261.4C594.41 261.4 599.91 258.97 599.91 257.75L599.91 217.52C612.1 236.73 632.16 250.65 655.3 258.04C656.68 252.02 660.62 247.92 665.78 246.7L665.93 245.04C643.27 241.12 618 230.82 603.7 216.74L658.65 216.74ZM90.48 198.9L90.48 158.64L131.87 158.64L131.87 198.9L90.48 198.9ZM144.5 198.9L144.5 158.64L185.89 158.64L185.89 198.9L144.5 198.9ZM614.96 165.91C611.61 172.12 606.89 177.26 601.28 181.65C592.14 180.58 581.33 179.84 568.85 179.21C572.53 175.15 576.47 170.61 580.11 165.91L614.96 165.91ZM800.5 194.06L800.5 171.34L763.53 171.34L763.53 194.06L800.5 194.06ZM718.31 238.54C725 234.92 732.77 230.67 740.23 226.42L741.46 228.27C735.96 233.4 725.49 243.53 713.45 254.13C712.52 257.16 710.4 259.11 708.73 259.89L701.56 245.82C706.28 243.23 707.06 242.31 707.06 239.61L707.06 172.56L723.33 174.37C723.03 176.37 721.66 177.55 718.31 178.18L718.31 238.54ZM805.07 246.26L805.07 219.77L763.53 219.77L763.53 246.26L805.07 246.26Z" fill="#FFC1B8" fill-opacity="1.000000" fill-rule="evenodd"/>
</svg>
